<svg xmlns="http://www.w3.org/2000/svg" viewBox="0 0 7053.62 2377.32"><defs><style>.cls-1{fill:#59595b;}.cls-2{fill:#1a2e35;}.cls-3{fill:#ff735d;}.cls-4{fill:#375a64;}.cls-5{fill:#a4a4a7;}.cls-6{fill:#f5f5f5;}.cls-7{fill:#e1e1e1;}.cls-8{fill:#2f3f51;}.cls-9{fill:#fff;}.cls-10{fill:#ececec;}.cls-11{fill:#fafafa;}.cls-12{font-size:289.66px;fill:#0369a1;font-family:Poppins-Bold, Poppins;font-weight:700;}</style></defs><g id="Layer_2" data-name="Layer 2"><g id="Layer_1-2" data-name="Layer 1"><path class="cls-1" d="M3804.39,1451.35v-35.67h6.9v35.67Zm42.57,0v-35.67h71.33v35.67Zm107,0v-35.67h71.34v35.67Zm107,0v-35.67H5165.66v35.67Z"/><rect class="cls-1" x="257.88" y="588.11" width="35.67" height="35.67"/><path class="cls-1" d="M326.66,623.78V588.11H392.9v35.67Zm99.35,0V588.11h66.23v35.67Z"/><polygon class="cls-1" points="525.36 623.78 525.36 588.11 578.86 588.11 578.86 641.62 543.19 641.62 543.19 623.78 525.36 623.78"/><path class="cls-1" d="M543.19,2181.83v-73.34h35.67v73.34Zm0-110v-73.35h35.67v73.35Zm0-110v-73.34h35.67v73.34Zm0-110v-73.34h35.67v73.34Zm0-110v-73.34h35.67v73.34Zm0-110v-73.34h35.67v73.34Zm0-110V1448.4h35.67v73.34Zm0-110v-73.34h35.67v73.34Zm0-110v-73.35h35.67v73.35Zm0-110v-73.34h35.67v73.34Zm0-110v-73.35h35.67v73.35Zm0-110V898.32h35.67v73.34Zm0-110V788.31h35.67v73.34Zm0-110V678.29h35.67v73.34Z"/><polygon class="cls-1" points="525.36 2272.01 525.36 2236.34 543.19 2236.34 543.19 2218.5 578.86 2218.5 578.86 2272.01 525.36 2272.01"/><path class="cls-1" d="M348.45,2272v-35.66h59V2272Zm88.45,0v-35.66h59V2272Z"/><rect class="cls-1" x="283.3" y="2236.34" width="35.67" height="35.67"/><path class="cls-1" d="M233.1,1183.76v-35.67H240v35.67Zm42.58,0v-35.67H347v35.67Zm107,0v-35.67H454v35.67Zm107,0v-35.67H561v35.67Z"/><path class="cls-1" d="M233.1,1730.12v-35.67H240v35.67Zm42.58,0v-35.67H347v35.67Zm107,0v-35.67H454v35.67Zm107,0v-35.67H561v35.67Z"/><path class="cls-1" d="M556.07,1456.94v-35.67H563v35.67Zm42.57,0v-35.67H670v35.67Zm107,0v-35.67H777v35.67Zm107,0v-35.67H1917.35v35.67Z"/><rect class="cls-2" y="489.71" width="237.34" height="237.34"/><rect class="cls-3" y="1047.25" width="237.34" height="237.34"/><rect class="cls-4" y="1593.62" width="237.34" height="237.34"/><rect class="cls-5" y="2139.98" width="237.34" height="237.34"/><rect class="cls-2" x="2125.42" y="925.86" width="1514.32" height="1054.13"/><rect class="cls-4" x="1917.35" y="1238.56" width="1557.74" height="386.48"/><rect class="cls-2" x="1986.51" y="1318.16" width="306.71" height="47.19"/><rect class="cls-2" x="1986.51" y="1399.35" width="306.71" height="47.19"/><rect class="cls-2" x="1986.51" y="1483.32" width="306.71" height="47.19"/><path class="cls-2" d="M2414.52,1346.67a17.6,17.6,0,1,1-17.59-17.59A17.59,17.59,0,0,1,2414.52,1346.67Z"/><path class="cls-2" d="M2492.16,1346.67a17.6,17.6,0,1,1-17.59-17.59A17.58,17.58,0,0,1,2492.16,1346.67Z"/><path class="cls-2" d="M2569.81,1346.67a17.6,17.6,0,1,1-17.6-17.59A17.59,17.59,0,0,1,2569.81,1346.67Z"/><path class="cls-2" d="M2647.45,1346.67a17.6,17.6,0,1,1-17.59-17.59A17.59,17.59,0,0,1,2647.45,1346.67Z"/><path class="cls-2" d="M3249.12,1346.67a17.6,17.6,0,1,1-17.6-17.59A17.59,17.59,0,0,1,3249.12,1346.67Z"/><path class="cls-2" d="M3328.3,1346.67a17.6,17.6,0,1,1-17.6-17.59A17.59,17.59,0,0,1,3328.3,1346.67Z"/><path class="cls-2" d="M2725.09,1346.67a17.6,17.6,0,1,1-17.59-17.59A17.58,17.58,0,0,1,2725.09,1346.67Z"/><path class="cls-2" d="M3106.4,1346.67a17.6,17.6,0,1,1-17.59-17.59A17.59,17.59,0,0,1,3106.4,1346.67Z"/><path class="cls-6" d="M2802.74,1346.67a17.6,17.6,0,1,1-17.6-17.59A17.59,17.59,0,0,1,2802.74,1346.67Z"/><path class="cls-6" d="M2880.38,1346.67a17.6,17.6,0,1,1-17.59-17.59A17.59,17.59,0,0,1,2880.38,1346.67Z"/><path class="cls-6" d="M3037.91,1346.67a17.6,17.6,0,1,1-17.59-17.59A17.59,17.59,0,0,1,3037.91,1346.67Z"/><path class="cls-6" d="M3392.72,1346.67a17.6,17.6,0,1,1-17.6-17.59A17.59,17.59,0,0,1,3392.72,1346.67Z"/><path class="cls-3" d="M2958,1346.67a17.59,17.59,0,1,1-17.59-17.59A17.58,17.58,0,0,1,2958,1346.67Z"/><path class="cls-3" d="M3180.33,1346.67a17.6,17.6,0,1,1-17.59-17.59A17.59,17.59,0,0,1,3180.33,1346.67Z"/><path class="cls-2" d="M3357.53,1431.48a17.6,17.6,0,1,1,17.59,17.6A17.58,17.58,0,0,1,3357.53,1431.48Z"/><path class="cls-2" d="M3279.88,1431.48a17.6,17.6,0,1,1,17.6,17.6A17.59,17.59,0,0,1,3279.88,1431.48Z"/><path class="cls-2" d="M3202.24,1431.48a17.6,17.6,0,1,1,17.59,17.6A17.59,17.59,0,0,1,3202.24,1431.48Z"/><path class="cls-2" d="M3124.6,1431.48a17.6,17.6,0,1,1,17.59,17.6A17.58,17.58,0,0,1,3124.6,1431.48Z"/><path class="cls-2" d="M2522.93,1431.48a17.6,17.6,0,1,1,17.59,17.6A17.58,17.58,0,0,1,2522.93,1431.48Z"/><path class="cls-2" d="M2443.75,1431.48a17.6,17.6,0,1,1,17.6,17.6A17.59,17.59,0,0,1,2443.75,1431.48Z"/><path class="cls-2" d="M3047,1431.48a17.6,17.6,0,1,1,17.6,17.6A17.59,17.59,0,0,1,3047,1431.48Z"/><path class="cls-2" d="M2665.65,1431.48a17.59,17.59,0,1,1,17.59,17.6A17.58,17.58,0,0,1,2665.65,1431.48Z"/><path class="cls-6" d="M2969.31,1431.48a17.6,17.6,0,1,1,17.59,17.6A17.59,17.59,0,0,1,2969.31,1431.48Z"/><path class="cls-6" d="M2891.67,1431.48a17.59,17.59,0,1,1,17.59,17.6A17.58,17.58,0,0,1,2891.67,1431.48Z"/><path class="cls-6" d="M2734.14,1431.48a17.59,17.59,0,1,1,17.59,17.6A17.58,17.58,0,0,1,2734.14,1431.48Z"/><path class="cls-6" d="M2379.33,1431.48a17.6,17.6,0,1,1,17.6,17.6A17.59,17.59,0,0,1,2379.33,1431.48Z"/><path class="cls-3" d="M2814,1431.48a17.6,17.6,0,1,1,17.6,17.6A17.59,17.59,0,0,1,2814,1431.48Z"/><path class="cls-3" d="M2591.72,1431.48a17.59,17.59,0,1,1,17.59,17.6A17.58,17.58,0,0,1,2591.72,1431.48Z"/><path class="cls-2" d="M2414.52,1506.91a17.6,17.6,0,1,1-17.59-17.6A17.59,17.59,0,0,1,2414.52,1506.91Z"/><circle class="cls-2" cx="2474.57" cy="1506.91" r="17.59"/><circle class="cls-2" cx="2552.21" cy="1506.91" r="17.59"/><circle class="cls-2" cx="2629.86" cy="1506.91" r="17.59"/><circle class="cls-2" cx="3231.52" cy="1506.91" r="17.59"/><circle class="cls-2" cx="3310.7" cy="1506.91" r="17.59"/><path class="cls-2" d="M2725.09,1506.91a17.6,17.6,0,1,1-17.59-17.6A17.58,17.58,0,0,1,2725.09,1506.91Z"/><path class="cls-2" d="M3106.4,1506.91a17.6,17.6,0,1,1-17.59-17.6A17.59,17.59,0,0,1,3106.4,1506.91Z"/><circle class="cls-6" cx="2785.14" cy="1506.91" r="17.59"/><path class="cls-6" d="M2880.38,1506.91a17.6,17.6,0,1,1-17.59-17.6A17.59,17.59,0,0,1,2880.38,1506.91Z"/><path class="cls-6" d="M3037.91,1506.91a17.6,17.6,0,1,1-17.59-17.6A17.59,17.59,0,0,1,3037.91,1506.91Z"/><path class="cls-6" d="M3392.72,1506.91a17.6,17.6,0,1,1-17.6-17.6A17.59,17.59,0,0,1,3392.72,1506.91Z"/><path class="cls-3" d="M2958,1506.91a17.59,17.59,0,1,1-17.59-17.6A17.58,17.58,0,0,1,2958,1506.91Z"/><circle class="cls-3" cx="3162.74" cy="1506.91" r="17.59"/><rect class="cls-4" x="1917.35" y="1715.48" width="1557.74" height="386.48"/><path class="cls-2" d="M2410.66,1819.76a17.6,17.6,0,1,1-17.59-17.6A17.6,17.6,0,0,1,2410.66,1819.76Z"/><path class="cls-2" d="M2488.3,1819.76a17.59,17.59,0,1,1-17.59-17.6A17.59,17.59,0,0,1,2488.3,1819.76Z"/><path class="cls-2" d="M2566,1819.76a17.6,17.6,0,1,1-17.6-17.6A17.6,17.6,0,0,1,2566,1819.76Z"/><path class="cls-2" d="M2643.59,1819.76a17.6,17.6,0,1,1-17.59-17.6A17.59,17.59,0,0,1,2643.59,1819.76Z"/><path class="cls-2" d="M3245.26,1819.76a17.6,17.6,0,1,1-17.59-17.6A17.6,17.6,0,0,1,3245.26,1819.76Z"/><path class="cls-2" d="M3324.44,1819.76a17.6,17.6,0,1,1-17.6-17.6A17.6,17.6,0,0,1,3324.44,1819.76Z"/><path class="cls-2" d="M2721.23,1819.76a17.59,17.59,0,1,1-17.59-17.6A17.59,17.59,0,0,1,2721.23,1819.76Z"/><path class="cls-2" d="M3102.54,1819.76a17.6,17.6,0,1,1-17.59-17.6A17.59,17.59,0,0,1,3102.54,1819.76Z"/><path class="cls-6" d="M2798.88,1819.76a17.6,17.6,0,1,1-17.59-17.6A17.6,17.6,0,0,1,2798.88,1819.76Z"/><path class="cls-6" d="M2876.52,1819.76a17.6,17.6,0,1,1-17.59-17.6A17.59,17.59,0,0,1,2876.52,1819.76Z"/><path class="cls-6" d="M3034.05,1819.76a17.6,17.6,0,1,1-17.59-17.6A17.59,17.59,0,0,1,3034.05,1819.76Z"/><path class="cls-6" d="M3388.86,1819.76a17.6,17.6,0,1,1-17.6-17.6A17.6,17.6,0,0,1,3388.86,1819.76Z"/><path class="cls-3" d="M2954.17,1819.76a17.6,17.6,0,1,1-17.6-17.6A17.6,17.6,0,0,1,2954.17,1819.76Z"/><path class="cls-3" d="M3176.47,1819.76a17.59,17.59,0,1,1-17.59-17.6A17.59,17.59,0,0,1,3176.47,1819.76Z"/><path class="cls-2" d="M3353.67,1904.57a17.6,17.6,0,1,1,17.59,17.59A17.6,17.6,0,0,1,3353.67,1904.57Z"/><circle class="cls-2" cx="3293.62" cy="1904.57" r="17.6"/><path class="cls-2" d="M3198.38,1904.57a17.6,17.6,0,1,1,17.6,17.59A17.6,17.6,0,0,1,3198.38,1904.57Z"/><path class="cls-2" d="M3120.74,1904.57a17.6,17.6,0,1,1,17.59,17.59A17.6,17.6,0,0,1,3120.74,1904.57Z"/><path class="cls-2" d="M2519.07,1904.57a17.6,17.6,0,1,1,17.59,17.59A17.6,17.6,0,0,1,2519.07,1904.57Z"/><path class="cls-2" d="M2439.89,1904.57a17.6,17.6,0,1,1,17.6,17.59A17.6,17.6,0,0,1,2439.89,1904.57Z"/><circle class="cls-2" cx="3060.69" cy="1904.57" r="17.6"/><circle class="cls-2" cx="2679.38" cy="1904.57" r="17.59"/><path class="cls-6" d="M2965.45,1904.57a17.6,17.6,0,1,1,17.6,17.59A17.6,17.6,0,0,1,2965.45,1904.57Z"/><path class="cls-6" d="M2887.81,1904.57a17.6,17.6,0,1,1,17.59,17.59A17.6,17.6,0,0,1,2887.81,1904.57Z"/><circle class="cls-6" cx="2747.87" cy="1904.57" r="17.59"/><path class="cls-6" d="M2375.47,1904.57a17.6,17.6,0,1,1,17.6,17.59A17.6,17.6,0,0,1,2375.47,1904.57Z"/><path class="cls-3" d="M2810.16,1904.57a17.6,17.6,0,1,1,17.6,17.59A17.6,17.6,0,0,1,2810.16,1904.57Z"/><path class="cls-3" d="M2587.86,1904.57a17.6,17.6,0,1,1,17.59,17.59A17.6,17.6,0,0,1,2587.86,1904.57Z"/><path class="cls-2" d="M2410.66,1980a17.6,17.6,0,1,1-17.59-17.59A17.6,17.6,0,0,1,2410.66,1980Z"/><path class="cls-2" d="M2488.3,1980a17.59,17.59,0,1,1-17.59-17.59A17.59,17.59,0,0,1,2488.3,1980Z"/><path class="cls-2" d="M2566,1980a17.6,17.6,0,1,1-17.6-17.59A17.6,17.6,0,0,1,2566,1980Z"/><path class="cls-2" d="M2643.59,1980A17.6,17.6,0,1,1,2626,1962.4,17.59,17.59,0,0,1,2643.59,1980Z"/><path class="cls-2" d="M3245.26,1980a17.6,17.6,0,1,1-17.59-17.59A17.6,17.6,0,0,1,3245.26,1980Z"/><path class="cls-2" d="M3324.44,1980a17.6,17.6,0,1,1-17.6-17.59A17.6,17.6,0,0,1,3324.44,1980Z"/><path class="cls-2" d="M2721.23,1980a17.59,17.59,0,1,1-17.59-17.59A17.59,17.59,0,0,1,2721.23,1980Z"/><path class="cls-2" d="M3102.54,1980A17.6,17.6,0,1,1,3085,1962.4,17.59,17.59,0,0,1,3102.54,1980Z"/><path class="cls-6" d="M2798.88,1980a17.6,17.6,0,1,1-17.59-17.59A17.6,17.6,0,0,1,2798.88,1980Z"/><path class="cls-6" d="M2876.52,1980a17.6,17.6,0,1,1-17.59-17.59A17.59,17.59,0,0,1,2876.52,1980Z"/><path class="cls-6" d="M3034.05,1980a17.6,17.6,0,1,1-17.59-17.59A17.59,17.59,0,0,1,3034.05,1980Z"/><path class="cls-6" d="M3388.86,1980a17.6,17.6,0,1,1-17.6-17.59A17.6,17.6,0,0,1,3388.86,1980Z"/><path class="cls-3" d="M2954.17,1980a17.6,17.6,0,1,1-17.6-17.59A17.6,17.6,0,0,1,2954.17,1980Z"/><path class="cls-3" d="M3176.47,1980a17.59,17.59,0,1,1-17.59-17.59A17.59,17.59,0,0,1,3176.47,1980Z"/><rect class="cls-2" x="1986.51" y="1795.09" width="306.71" height="47.19"/><rect class="cls-2" x="1986.51" y="1876.28" width="306.71" height="47.19"/><rect class="cls-2" x="1986.51" y="1960.24" width="306.71" height="47.19"/><polygon class="cls-2" points="3804.39 1624.41 3475.09 1625.03 3475.09 1238.56 3804.39 1237.93 3804.39 1624.41"/><polygon class="cls-2" points="3804.39 2098.32 3475.09 2098.95 3475.09 1712.47 3804.39 1711.85 3804.39 2098.32"/><rect class="cls-2" x="1997.79" y="1009.82" width="306.71" height="47.19"/><polygon class="cls-2" points="3804.39 1154.49 3475.09 1155.12 3475.09 765.7 3804.39 765.07 3804.39 1154.49"/><rect class="cls-4" x="1928.63" y="765.07" width="1557.74" height="386.48"/><rect class="cls-2" x="1997.79" y="844.67" width="306.71" height="47.19"/><rect class="cls-2" x="1997.79" y="925.86" width="306.71" height="47.19"/><path class="cls-2" d="M2425.8,873.18a17.6,17.6,0,1,1-17.6-17.6A17.59,17.59,0,0,1,2425.8,873.18Z"/><path class="cls-2" d="M2503.44,873.18a17.6,17.6,0,1,1-17.59-17.6A17.59,17.59,0,0,1,2503.44,873.18Z"/><path class="cls-2" d="M2581.09,873.18a17.6,17.6,0,1,1-17.6-17.6A17.59,17.59,0,0,1,2581.09,873.18Z"/><path class="cls-2" d="M2658.73,873.18a17.6,17.6,0,1,1-17.6-17.6A17.59,17.59,0,0,1,2658.73,873.18Z"/><path class="cls-2" d="M3260.4,873.18a17.6,17.6,0,1,1-17.6-17.6A17.59,17.59,0,0,1,3260.4,873.18Z"/><path class="cls-2" d="M3339.58,873.18a17.6,17.6,0,1,1-17.6-17.6A17.59,17.59,0,0,1,3339.58,873.18Z"/><path class="cls-2" d="M2736.37,873.18a17.6,17.6,0,1,1-17.59-17.6A17.59,17.59,0,0,1,2736.37,873.18Z"/><path class="cls-2" d="M3117.68,873.18a17.6,17.6,0,1,1-17.59-17.6A17.59,17.59,0,0,1,3117.68,873.18Z"/><path class="cls-6" d="M2814,873.18a17.6,17.6,0,1,1-17.6-17.6A17.59,17.59,0,0,1,2814,873.18Z"/><path class="cls-6" d="M2891.66,873.18a17.6,17.6,0,1,1-17.59-17.6A17.59,17.59,0,0,1,2891.66,873.18Z"/><path class="cls-6" d="M3049.19,873.18a17.6,17.6,0,1,1-17.6-17.6A17.59,17.59,0,0,1,3049.19,873.18Z"/><path class="cls-6" d="M3404,873.18a17.6,17.6,0,1,1-17.6-17.6A17.59,17.59,0,0,1,3404,873.18Z"/><path class="cls-3" d="M2969.3,873.18a17.6,17.6,0,1,1-17.59-17.6A17.58,17.58,0,0,1,2969.3,873.18Z"/><path class="cls-3" d="M3191.61,873.18a17.6,17.6,0,1,1-17.59-17.6A17.59,17.59,0,0,1,3191.61,873.18Z"/><path class="cls-2" d="M3368.81,958a17.6,17.6,0,1,1,17.59,17.6A17.59,17.59,0,0,1,3368.81,958Z"/><circle class="cls-2" cx="3308.76" cy="957.99" r="17.6"/><path class="cls-2" d="M3213.52,958a17.6,17.6,0,1,1,17.59,17.6A17.59,17.59,0,0,1,3213.52,958Z"/><path class="cls-2" d="M3135.88,958a17.59,17.59,0,1,1,17.59,17.6A17.58,17.58,0,0,1,3135.88,958Z"/><path class="cls-2" d="M2534.21,958a17.6,17.6,0,1,1,17.59,17.6A17.58,17.58,0,0,1,2534.21,958Z"/><path class="cls-2" d="M2455,958a17.6,17.6,0,1,1,17.59,17.6A17.59,17.59,0,0,1,2455,958Z"/><path class="cls-2" d="M3058.23,958a17.6,17.6,0,1,1,17.6,17.6A17.59,17.59,0,0,1,3058.23,958Z"/><circle class="cls-2" cx="2694.52" cy="957.99" r="17.59"/><path class="cls-6" d="M2980.59,958a17.6,17.6,0,1,1,17.59,17.6A17.59,17.59,0,0,1,2980.59,958Z"/><circle class="cls-6" cx="2920.54" cy="957.99" r="17.59"/><path class="cls-6" d="M2745.42,958a17.6,17.6,0,1,1,17.59,17.6A17.58,17.58,0,0,1,2745.42,958Z"/><circle class="cls-6" cx="2408.2" cy="957.99" r="17.6"/><path class="cls-3" d="M2825.3,958a17.6,17.6,0,1,1,17.6,17.6A17.59,17.59,0,0,1,2825.3,958Z"/><path class="cls-3" d="M2603,958a17.59,17.59,0,1,1,17.59,17.6A17.58,17.58,0,0,1,2603,958Z"/><path class="cls-2" d="M2425.8,1033.42a17.6,17.6,0,1,1-17.6-17.6A17.6,17.6,0,0,1,2425.8,1033.42Z"/><path class="cls-2" d="M2503.44,1033.42a17.6,17.6,0,1,1-17.59-17.6A17.6,17.6,0,0,1,2503.44,1033.42Z"/><path class="cls-2" d="M2581.09,1033.42a17.6,17.6,0,1,1-17.6-17.6A17.6,17.6,0,0,1,2581.09,1033.42Z"/><path class="cls-2" d="M2658.73,1033.42a17.6,17.6,0,1,1-17.6-17.6A17.6,17.6,0,0,1,2658.73,1033.42Z"/><path class="cls-2" d="M3260.4,1033.42a17.6,17.6,0,1,1-17.6-17.6A17.6,17.6,0,0,1,3260.4,1033.42Z"/><path class="cls-2" d="M3339.58,1033.42a17.6,17.6,0,1,1-17.6-17.6A17.6,17.6,0,0,1,3339.58,1033.42Z"/><path class="cls-2" d="M2736.37,1033.42a17.6,17.6,0,1,1-17.59-17.6A17.6,17.6,0,0,1,2736.37,1033.42Z"/><path class="cls-2" d="M3117.68,1033.42a17.6,17.6,0,1,1-17.59-17.6A17.6,17.6,0,0,1,3117.68,1033.42Z"/><path class="cls-6" d="M2814,1033.42a17.6,17.6,0,1,1-17.6-17.6A17.6,17.6,0,0,1,2814,1033.42Z"/><path class="cls-6" d="M2891.66,1033.42a17.6,17.6,0,1,1-17.59-17.6A17.6,17.6,0,0,1,2891.66,1033.42Z"/><path class="cls-6" d="M3049.19,1033.42a17.6,17.6,0,1,1-17.6-17.6A17.6,17.6,0,0,1,3049.19,1033.42Z"/><path class="cls-6" d="M3404,1033.42a17.6,17.6,0,1,1-17.6-17.6A17.6,17.6,0,0,1,3404,1033.42Z"/><path class="cls-3" d="M2969.3,1033.42a17.6,17.6,0,1,1-17.59-17.6A17.59,17.59,0,0,1,2969.3,1033.42Z"/><path class="cls-3" d="M3191.61,1033.42a17.6,17.6,0,1,1-17.59-17.6A17.6,17.6,0,0,1,3191.61,1033.42Z"/><path class="cls-7" d="M4847.22,1433.51a16.32,16.32,0,1,1-16.32-16.31A16.32,16.32,0,0,1,4847.22,1433.51Z"/><path class="cls-7" d="M4895.86,1433.51a16.32,16.32,0,1,1-16.31-16.31A16.32,16.32,0,0,1,4895.86,1433.51Z"/><path class="cls-4" d="M6987.6,499.41h-2115a66,66,0,0,0-66,66V2059.3a66,66,0,0,0,66,66h811.73S5736,2285,5575.9,2367.61h759s-180.72-62-134.25-242.28h786.95a66,66,0,0,0,66-66V565.43A66,66,0,0,0,6987.6,499.41Z"/><path class="cls-8" d="M5958.34,1968.22c28.77,41.11-16.26,86.14-57.39,57.38a14.48,14.48,0,0,1-3.53-3.54c-28.69-41.11,16.28-86.08,57.38-57.38A14.52,14.52,0,0,1,5958.34,1968.22Z"/><path class="cls-9" d="M4936.24,526.78H6924A93.24,93.24,0,0,1,7017.2,620V1852a0,0,0,0,1,0,0H4843a0,0,0,0,1,0,0V620A93.25,93.25,0,0,1,4936.24,526.78Z"/><path class="cls-10" d="M4931,526.78H6944.94a72.27,72.27,0,0,1,72.27,72.27V636.9a0,0,0,0,1,0,0H4843a0,0,0,0,1,0,0V614.8A88,88,0,0,1,4931,526.78Z"/><path class="cls-7" d="M5016.34,584.15a15.28,15.28,0,1,1-15.28-15.27A15.28,15.28,0,0,1,5016.34,584.15Z"/><path class="cls-8" d="M6609.47,2125.54c0,.7-301,1.27-672.14,1.27s-672.21-.57-672.21-1.27,300.91-1.27,672.21-1.27S6609.47,2124.84,6609.47,2125.54Z"/><polygon class="cls-6" points="5543.46 1387.57 4937.15 1389.32 4938.35 1805.61 5440.98 1804.16 5509.15 1803.96 5544.66 1803.86 5543.46 1387.57"/><path class="cls-2" d="M4983.81,1761c-.74,0-1.53-70.61-1.78-157.71s.14-157.72.87-157.72,1.53,70.59,1.78,157.72S4984.54,1761,4983.81,1761Z"/><path class="cls-10" d="M5509.85,1716c0,.74-118.24,1.67-264.08,2.09s-264.11.17-264.11-.57,118.22-1.66,264.1-2.08S5509.85,1715.27,5509.85,1716Z"/><path class="cls-10" d="M5509.72,1669.73c0,.73-118.25,1.66-264.08,2.08s-264.11.17-264.12-.56,118.22-1.67,264.11-2.09S5509.72,1669,5509.72,1669.73Z"/><path class="cls-10" d="M5509.59,1623.45c0,.73-118.25,1.66-264.08,2.08s-264.12.17-264.12-.56,118.22-1.67,264.11-2.09S5509.58,1622.72,5509.59,1623.45Z"/><path class="cls-10" d="M5509.45,1577.17c0,.73-118.24,1.67-264.08,2.08s-264.11.17-264.11-.56,118.22-1.67,264.1-2.09S5509.45,1576.44,5509.45,1577.17Z"/><path class="cls-10" d="M5509.32,1530.89c0,.73-118.25,1.67-264.08,2.09s-264.11.16-264.12-.57,118.22-1.66,264.11-2.08S5509.32,1530.16,5509.32,1530.89Z"/><path class="cls-10" d="M5509.19,1484.61c0,.73-118.25,1.67-264.08,2.09s-264.12.17-264.12-.57,118.22-1.66,264.11-2.08S5509.18,1483.88,5509.19,1484.61Z"/><path class="cls-10" d="M5509.05,1438.33c0,.74-118.24,1.67-264.08,2.09s-264.11.17-264.11-.56,118.22-1.67,264.1-2.09S5509.05,1437.6,5509.05,1438.33Z"/><rect class="cls-3" x="5017.41" y="1688.69" width="37.87" height="72.12" transform="translate(-4.94 14.51) rotate(-0.16)"/><rect class="cls-3" x="5292.49" y="1687.9" width="37.87" height="72.12" transform="translate(-4.91 15.21) rotate(-0.16)"/><rect class="cls-3" x="5091.62" y="1635.44" width="37.87" height="125.16" transform="translate(-4.89 14.8) rotate(-0.17)"/><rect class="cls-3" x="5230.36" y="1602.48" width="37.87" height="157.72" transform="translate(-4.82 15.12) rotate(-0.16)"/><rect class="cls-3" x="5161.71" y="1506.85" width="37.87" height="253.54" transform="translate(-4.71 15) rotate(-0.17)"/><rect class="cls-3" x="5365.69" y="1553.16" width="37.87" height="206.65" transform="matrix(1, 0, 0, 1, -4.75, 15.51)"/><path class="cls-2" d="M5449,1759.62c0,.73-103.93,1.63-232.12,2s-232.15.08-232.15-.65,103.91-1.63,232.14-2S5449,1758.89,5449,1759.62Z"/><polygon class="cls-6" points="4931.63 735.58 4931.63 1346.92 5913.04 1346.92 5999.13 1346.92 6254.06 1346.92 6254.06 735.58 4931.63 735.58"/><path class="cls-2" d="M5024.67,1157.86v19.3h-2v-17.53h-4.55v-1.77Z"/><path class="cls-2" d="M5029.29,1167.51c0-6.14,3.23-9.82,7.69-9.82s7.72,3.68,7.72,9.82-3.25,9.82-7.72,9.82S5029.29,1173.66,5029.29,1167.51Zm13.38,0c0-5.15-2.32-8-5.69-8s-5.68,2.84-5.68,8,2.32,8,5.68,8S5042.67,1172.67,5042.67,1167.51Z"/><path class="cls-2" d="M5032.5,1055.39v1.76H5019v-1.4l8-7.86c2.18-2.15,2.59-3.45,2.59-4.77,0-2.23-1.57-3.61-4.52-3.61a6.53,6.53,0,0,0-5.26,2.15l-1.41-1.21a8.64,8.64,0,0,1,6.83-2.76c3.92,0,6.4,2,6.4,5.21,0,1.85-.57,3.5-3.17,6l-6.56,6.45Z"/><path class="cls-2" d="M5034.9,1047.5c0-6.14,3.22-9.81,7.69-9.81s7.72,3.67,7.72,9.81-3.26,9.82-7.72,9.82S5034.9,1053.65,5034.9,1047.5Zm13.37,0c0-5.15-2.31-8-5.68-8s-5.68,2.84-5.68,8,2.32,8,5.68,8S5048.27,1052.66,5048.27,1047.5Z"/><path class="cls-2" d="M5032.08,931.59c0,3.23-2.34,5.71-7,5.71a10,10,0,0,1-6.95-2.48l1-1.57a8.43,8.43,0,0,0,6,2.23c3.2,0,5-1.48,5-3.89s-1.63-3.83-5.21-3.83h-1.38V926.3l5.35-6.7h-9.87v-1.76h12.41v1.4l-5.46,6.87C5030,926.33,5032.08,928.51,5032.08,931.59Z"/><path class="cls-2" d="M5034.9,927.49c0-6.15,3.22-9.82,7.69-9.82s7.72,3.67,7.72,9.82-3.26,9.81-7.72,9.81S5034.9,933.64,5034.9,927.49Zm13.37,0c0-5.16-2.31-8-5.68-8s-5.68,2.84-5.68,8,2.32,8,5.68,8S5048.27,932.64,5048.27,927.49Z"/><path class="cls-2" d="M5109.87,1230.84c0-6.15,3.23-9.82,7.7-9.82s7.72,3.67,7.72,9.82-3.26,9.82-7.72,9.82S5109.87,1237,5109.87,1230.84Zm13.38,0c0-5.16-2.32-8-5.68-8s-5.69,2.84-5.69,8,2.32,8,5.69,8S5123.25,1236,5123.25,1230.84Z"/><path class="cls-2" d="M5252.74,1221.19v19.3h-2V1223h-4.55v-1.76Z"/><path class="cls-2" d="M5403.33,1238.73v1.76h-13.55v-1.41l8-7.86c2.18-2.14,2.59-3.44,2.59-4.76,0-2.24-1.57-3.62-4.52-3.62a6.57,6.57,0,0,0-5.27,2.15l-1.4-1.21A8.67,8.67,0,0,1,5396,1221c3.92,0,6.4,2,6.4,5.22,0,1.84-.58,3.5-3.17,6l-6.56,6.46Z"/><path class="cls-2" d="M5545.66,1235c0,3.22-2.34,5.71-7,5.71a10,10,0,0,1-6.95-2.49l1-1.57a8.43,8.43,0,0,0,6,2.23c3.2,0,5-1.48,5-3.88s-1.64-3.84-5.22-3.84H5537v-1.46l5.35-6.7h-9.87v-1.76h12.41v1.4l-5.46,6.87C5543.6,1229.68,5545.66,1231.86,5545.66,1235Z"/><path class="cls-2" d="M5692.05,1235.42h-3.86v5.07h-2v-5.07h-10.89V1234l10.23-12.79h2.21l-9.87,12.46h8.38v-4.46h1.92v4.46h3.86Z"/><path class="cls-2" d="M5831.5,1234.81c0,3.28-2.29,5.85-7,5.85a10,10,0,0,1-6.92-2.49l1-1.57a8.31,8.31,0,0,0,5.92,2.23c3.28,0,5-1.59,5-3.94s-1.54-4-6.45-4h-4.11l1-9.68h10.56V1223h-8.82l-.66,6.15h2.48C5829.3,1229.1,5831.5,1231.39,5831.5,1234.81Z"/><path class="cls-2" d="M5975.66,1234.73c0,3.61-2.84,5.93-6.58,5.93-5.14,0-7.92-3.56-7.92-9.65,0-6.57,3.58-10,8.82-10a8.92,8.92,0,0,1,4.58,1l-.8,1.6a6.76,6.76,0,0,0-3.75-.91c-4.16,0-6.84,2.67-6.84,7.92,0,.43,0,1,.08,1.57,1-2.13,3.23-3.31,5.9-3.31C5973,1228.94,5975.66,1231.2,5975.66,1234.73Zm-2,0c0-2.53-1.87-4.16-4.85-4.16s-5,1.82-5,4.22c0,2.12,1.76,4.14,5.1,4.14C5971.78,1239,5973.7,1237.35,5973.7,1234.78Z"/><path class="cls-2" d="M6117.53,1221.19v1.4l-8.08,17.9h-2.15l7.95-17.54h-9.93v3.62h-2v-5.38Z"/><path class="cls-2" d="M6118.57,1168.45c0,1-223.41,1.87-498.94,1.87s-499-.84-499-1.87,223.36-1.88,499-1.88S6118.57,1167.41,6118.57,1168.45Z"/><path class="cls-2" d="M6118.57,1047.81c0,1-223.41,1.88-498.94,1.88s-499-.84-499-1.88,223.36-1.87,499-1.87S6118.57,1046.78,6118.57,1047.81Z"/><path class="cls-2" d="M6118.57,927.18c0,1-223.41,1.88-498.94,1.88s-499-.84-499-1.88,223.36-1.87,499-1.87S6118.57,926.15,6118.57,927.18Z"/><path class="cls-3" d="M5120.65,1166.68a6.41,6.41,0,1,1-6.41-6.41A6.41,6.41,0,0,1,5120.65,1166.68Z"/><path class="cls-3" d="M5264.12,1166.68a6.41,6.41,0,1,1-6.41-6.41A6.41,6.41,0,0,1,5264.12,1166.68Z"/><path class="cls-3" d="M5407.6,1166.68a6.41,6.41,0,1,1-6.41-6.41A6.41,6.41,0,0,1,5407.6,1166.68Z"/><path class="cls-3" d="M5551.07,1166.68a6.41,6.41,0,1,1-6.41-6.41A6.41,6.41,0,0,1,5551.07,1166.68Z"/><path class="cls-3" d="M5694.55,1166.68a6.41,6.41,0,1,1-6.41-6.41A6.41,6.41,0,0,1,5694.55,1166.68Z"/><path class="cls-3" d="M5981.5,1166.68a6.41,6.41,0,1,1-6.41-6.41A6.41,6.41,0,0,1,5981.5,1166.68Z"/><path class="cls-3" d="M5838,1166.68a6.41,6.41,0,1,1-6.41-6.41A6.41,6.41,0,0,1,5838,1166.68Z"/><path class="cls-3" d="M6125,1166.68a6.41,6.41,0,1,1-6.4-6.41A6.4,6.4,0,0,1,6125,1166.68Z"/><path class="cls-7" d="M5186,1168.45a4.21,4.21,0,1,1-4.21-4.21A4.22,4.22,0,0,1,5186,1168.45Z"/><path class="cls-7" d="M5330,1168.45a4.21,4.21,0,1,1-4.2-4.21A4.21,4.21,0,0,1,5330,1168.45Z"/><path class="cls-7" d="M5474.06,1168.45a4.21,4.21,0,1,1-4.21-4.21A4.22,4.22,0,0,1,5474.06,1168.45Z"/><path class="cls-7" d="M5618.07,1168.45a4.21,4.21,0,1,1-4.2-4.21A4.21,4.21,0,0,1,5618.07,1168.45Z"/><path class="cls-7" d="M5762.09,1168.45a4.21,4.21,0,1,1-4.21-4.21A4.21,4.21,0,0,1,5762.09,1168.45Z"/><path class="cls-7" d="M5906.11,1168.45a4.21,4.21,0,1,1-4.21-4.21A4.22,4.22,0,0,1,5906.11,1168.45Z"/><path class="cls-7" d="M6050.12,1168.45a4.21,4.21,0,1,1-4.21-4.21A4.21,4.21,0,0,1,6050.12,1168.45Z"/><path class="cls-3" d="M5273.43,1115.12a15.72,15.72,0,1,1-15.72-15.72A15.72,15.72,0,0,1,5273.43,1115.12Z"/><path class="cls-3" d="M5398.61,1041.25a15.72,15.72,0,1,1-15.72-15.72A15.72,15.72,0,0,1,5398.61,1041.25Z"/><path class="cls-3" d="M5554,1047.81a15.72,15.72,0,1,1-15.72-15.71A15.72,15.72,0,0,1,5554,1047.81Z"/><path class="cls-3" d="M5705.65,913.53a15.72,15.72,0,1,1-15.71-15.71A15.71,15.71,0,0,1,5705.65,913.53Z"/><path class="cls-3" d="M5847.33,998.94a15.72,15.72,0,1,1-15.72-15.72A15.71,15.71,0,0,1,5847.33,998.94Z"/><path class="cls-3" d="M5990.81,1021.67a15.72,15.72,0,1,1-15.72-15.71A15.72,15.72,0,0,1,5990.81,1021.67Z"/><path class="cls-3" d="M6125,1115.12a22.26,22.26,0,0,1-3.68,0,76.64,76.64,0,0,1-10.73-1.43,81.22,81.22,0,0,1-37.31-17.73,77.37,77.37,0,0,1-18.34-23.85,174,174,0,0,0-19.2-29.73c-8.09-9.54-18.54-19.3-32.43-22.62a41.36,41.36,0,0,0-21.45.76,57.64,57.64,0,0,0-19.92,11.27c-12.22,10.22-21.22,24.73-33.09,37.91-5.94,6.54-12.84,12.92-21.54,16.76a43.49,43.49,0,0,1-28.33,2.33c-9.82-2.63-17.29-10.86-21.55-19.81-4.45-9-6.92-18.83-9.31-28.64s-4.38-19.91-8.55-29.08c-2.08-4.52-5-8.75-9.18-11s-9.4-2.85-14.5-2.82c-10.34.54-20.75,3.52-31.54,5.57a91.38,91.38,0,0,1-16.64,1.9c-5.65,0-11.6-.66-16.92-3.3-5.56-2.23-9.79-6.67-13.44-11.24a83.85,83.85,0,0,1-8.21-15.27c-4.56-10.62-7.58-21.75-11.7-32.45-2.15-5.28-4.4-10.57-7.59-15.2s-7.36-8.41-12.45-10.36c-1.31-.38-2.6-.87-3.92-1.19l-4.14-.38a14.91,14.91,0,0,0-7.68,1.57c-4.8,2.44-8.44,7.12-11.49,12-5.94,10-9.88,21.46-13.32,33s-6.31,23.42-9.08,35.37c-4.59,19.78-8.68,39.52-13.77,58.83a293.88,293.88,0,0,1-8.83,28.51c-3.59,9.21-7.69,18.5-14.9,25.89-3.67,3.54-8.69,6.31-14.16,6.28a28.89,28.89,0,0,1-14.51-4.4c-8.62-5.19-15-12.83-20.38-20.62-10.87-15.72-17.85-33.23-24.61-50-6.88-16.57-14.64-33-27.48-44.21-12.58-11.16-30.65-15.32-46.12-11.25a77.69,77.69,0,0,0-21.95,9.66,149.52,149.52,0,0,0-19.17,13.86,256.2,256.2,0,0,0-32,32.17l-.06.08,0,0a345,345,0,0,1-47.4,39.38c-16.06,11.07-32.3,20.15-48.53,26.3-16.2,6-32.5,9.54-47.52,7.92-14.92-1.46-28-5.53-39.58-9.58a372.58,372.58,0,0,1-51.4-23.51c-5.69-3.12-10-5.61-12.82-7.35s-4.23-2.75-4.23-2.75,1.54.76,4.46,2.36l13,7c11.52,5.85,28.54,14.61,51.54,22.69,11.5,3.91,24.57,7.81,39.19,9.12,14.58,1.47,30.58-2.1,46.49-8.11,16-6.16,32-15.23,47.85-26.28a344.16,344.16,0,0,0,46.79-39.22l-.09.1a257.35,257.35,0,0,1,32.29-32.73,152.29,152.29,0,0,1,19.51-14.2,80.91,80.91,0,0,1,22.82-10.11c16.62-4.38,35.65,0,49.18,11.87s21.53,28.78,28.5,45.44c6.83,16.83,13.72,34,24.33,49.26,5.24,7.56,11.42,14.84,19.25,19.53a25.14,25.14,0,0,0,12.69,3.87c4.31,0,8.28-2.13,11.55-5.25,6.42-6.55,10.53-15.55,14-24.55a292.54,292.54,0,0,0,8.7-28.14c5.05-19.18,9.13-38.9,13.73-58.73,2.78-12,5.67-23.89,9.14-35.59s7.45-23.27,13.73-33.86c3.26-5.16,7.14-10.36,13-13.38a18.74,18.74,0,0,1,9.49-2l4.68.45c1.53.36,3,.91,4.55,1.36,6,2.28,10.71,6.76,14.17,11.74s5.77,10.53,8,16c4.19,10.93,7.2,22,11.62,32.35s10,20.48,19.81,24.68c9.59,4.64,20.95,3,31.4,1.19,10.61-2,21.09-5,32.08-5.56,5.48,0,11.21.52,16.27,3.28s8.39,7.76,10.59,12.56c4.41,9.8,6.3,20,8.7,29.74s4.76,19.4,9,28,10.76,15.83,19.56,18.24a40.41,40.41,0,0,0,26.24-2.09c8.12-3.54,14.78-9.57,20.61-16,11.71-12.84,20.83-27.46,33.53-38a60.08,60.08,0,0,1,20.89-11.66,43.74,43.74,0,0,1,22.73-.67c14.7,3.64,25.33,13.85,33.5,23.61a174.28,174.28,0,0,1,19.17,30.24,76.3,76.3,0,0,0,17.71,23.57c13.53,11.81,27.45,16,36.51,18.09a92.89,92.89,0,0,0,10.6,1.79C6123.73,1115,6125,1115,6125,1115.12Z"/><path class="cls-2" d="M5274.94,844.52c0,1-55.7,1.87-124.39,1.87s-124.41-.84-124.41-1.87,55.69-1.88,124.41-1.88S5274.94,843.48,5274.94,844.52Z"/><polygon class="cls-6" points="6306.84 739.5 6306.84 1337.24 6379.16 1337.24 6478.73 1337.24 6942.88 1337.24 6942.88 739.5 6306.84 739.5"/><path class="cls-2" d="M6622,807.24c-108.38,0-196.24,87.86-196.24,196.25s87.86,196.25,196.24,196.25,196.25-87.87,196.25-196.25S6730.42,807.24,6622,807.24Zm3,313.84a120.55,120.55,0,1,1,120.56-120.55A120.55,120.55,0,0,1,6625,1121.08Z"/><path class="cls-3" d="M6625,807.32c0,20.88,0,49,0,72.66a120.59,120.59,0,0,1,114.87,157.1l71.12,19.29a196.28,196.28,0,0,0,7.27-52.88C6818.28,896.11,6732,808.93,6625,807.32Z"/><path class="cls-4" d="M6504.44,1000.53a120.55,120.55,0,0,1,71.46-110.1l-30.18-67.79a196.28,196.28,0,0,0-119.93,180.85c0,2.76.09,5.5.21,8.24h79C6504.64,1008,6504.44,1004.31,6504.44,1000.53Z"/><path class="cls-3" d="M6625,1121.08a120.37,120.37,0,0,1-25.5-2.73c-3,17.5-8.76,51.38-13.26,78.07a197.4,197.4,0,0,0,35.8,3.32c90.06,0,165.89-60.68,189-143.37l-71.12-19.29A120.59,120.59,0,0,1,6625,1121.08Z"/><path d="M6625,1121.08a120.37,120.37,0,0,1-25.5-2.73c-3,17.5-8.76,51.38-13.26,78.07a197.4,197.4,0,0,0,35.8,3.32c90.06,0,165.89-60.68,189-143.37l-71.12-19.29A120.59,120.59,0,0,1,6625,1121.08Z"/><path class="cls-2" d="M6599,1010.29h-7.26v9.36h-10.07v-9.36h-24v-6.95l21-28.28h10.83l-19.5,26.82h12v-8.35h9.75v8.35H6599Z"/><path class="cls-2" d="M6602,997.35c0-14.71,8.15-23.06,19.11-23.06s19.12,8.35,19.12,23.06-8.09,23.07-19.12,23.07S6602,1012.07,6602,997.35Zm27.84,0c0-10.12-3.57-14.33-8.73-14.33s-8.66,4.21-8.66,14.33,3.57,14.34,8.66,14.34S6629.84,1007.48,6629.84,997.35Z"/><path class="cls-2" d="M6644.49,986.84c0-7.51,4.58-12.29,11.08-12.29s11,4.71,11,12.29-4.52,12.3-11,12.3S6644.49,994.36,6644.49,986.84Zm15.73,0c0-4.78-1.85-7.07-4.65-7.07s-4.65,2.36-4.65,7.07,1.91,7.07,4.65,7.07S6660.22,991.62,6660.22,986.84Zm21.92-11.78h7.58l-30.45,44.59h-7.59Zm-7.33,32.81c0-7.52,4.59-12.3,11-12.3s11.09,4.78,11.09,12.3-4.59,12.29-11.09,12.29S6674.81,1015.38,6674.81,1007.87Zm15.67,0c0-4.72-1.84-7.07-4.65-7.07s-4.65,2.29-4.65,7.07,1.91,7.07,4.65,7.07S6690.48,1012.58,6690.48,1007.87Z"/><path class="cls-2" d="M6784.42,1249.25c0,1-72.71,1.86-162.38,1.86s-162.4-.83-162.4-1.86,72.7-1.86,162.4-1.86S6784.42,1248.22,6784.42,1249.25Z"/><path class="cls-2" d="M6712.1,1279.07c0,1-40.33,1.86-90.06,1.86s-90.07-.83-90.07-1.86,40.32-1.86,90.07-1.86S6712.1,1278,6712.1,1279.07Z"/><rect class="cls-11" x="5592.85" y="1377" width="1276.58" height="419.4"/><path class="cls-10" d="M6761.75,1476.2c0,.75-216.95,1.35-484.5,1.35s-484.55-.6-484.55-1.35,216.9-1.35,484.55-1.35S6761.75,1475.45,6761.75,1476.2Z"/><path class="cls-10" d="M6761.75,1525.82c0,.75-216.95,1.36-484.5,1.36s-484.55-.61-484.55-1.36,216.9-1.35,484.55-1.35S6761.75,1525.08,6761.75,1525.82Z"/><path class="cls-10" d="M6761.75,1575.45c0,.75-216.95,1.35-484.5,1.35s-484.55-.6-484.55-1.35,216.9-1.35,484.55-1.35S6761.75,1574.7,6761.75,1575.45Z"/><path class="cls-10" d="M6761.75,1625.08c0,.74-216.95,1.35-484.5,1.35s-484.55-.61-484.55-1.35,216.9-1.36,484.55-1.36S6761.75,1624.33,6761.75,1625.08Z"/><path class="cls-10" d="M6761.75,1674.7c0,.75-216.95,1.35-484.5,1.35s-484.55-.6-484.55-1.35,216.9-1.35,484.55-1.35S6761.75,1674,6761.75,1674.7Z"/><path class="cls-4" d="M6677.37,1616.9s-.67.77-2.11,2.19a26.06,26.06,0,0,1-8.15,4.48c-7.8,2.66-22,2.8-35.37-5.63-6.45-4.35-12-10.68-16.64-18.2s-8.32-16.21-12.69-25.3-9.88-18.64-19-26.4a43.75,43.75,0,0,0-16.46-8.71,50.31,50.31,0,0,0-20.26-1c-13.93,2-27.32,8.69-38.67,17.77-11.54,9-21.69,20.16-34.1,30.24-12.23,10.06-28.22,18.71-46.81,20a48.11,48.11,0,0,1-26.79-6.19c-7.93-4.7-13.91-11.47-18.67-18.66-9.63-14.41-14.51-31.18-27-44.34-6.07-6.5-13.95-12.21-23.46-14.08a36.43,36.43,0,0,0-27.56,5.74,55.51,55.51,0,0,0-18.11,20.9c-4.2,8.13-6.33,17.13-8.58,26.13s-4.38,18.26-8.49,27.13a56.15,56.15,0,0,1-19.27,23.24,77.19,77.19,0,0,1-29.56,12.8,81.06,81.06,0,0,1-32.61.41c-10.79-1.9-20.36-6.86-28.8-12.33s-16.21-11.58-24.29-17-16.6-10.4-26.18-12.36a43,43,0,0,0-28,3.15,63.45,63.45,0,0,0-20.91,16.88c-5.6,6.71-9.84,14.18-14.14,21.49s-8.58,14.65-14,21.29a62.59,62.59,0,0,1-20.1,16.54c-7.86,4.08-17.17,6.42-26.24,5.32a39.5,39.5,0,0,1-22.78-11,54.45,54.45,0,0,1-12.57-18.94,126.32,126.32,0,0,1-5.73-20.3c-2.8-13.31-5.54-26.27-13.48-36.57-7.4-10.3-18.59-18.45-31.15-20.08a39.64,39.64,0,0,0-17.93,1.93,48.83,48.83,0,0,0-14.41,8.23c-16.36,13.58-24.23,30-36.36,39.48-11.49,9.87-23.9,14.42-32.52,14.18a30.72,30.72,0,0,1-9.48-1.46c-2-.74-3-1.18-3-1.18.08-.34,4,2.14,12.46,2.09s20.46-4.53,31.68-14.37c11.82-9.43,19.42-25.81,36-39.84a50.23,50.23,0,0,1,14.89-8.62,41.62,41.62,0,0,1,18.94-2.14c13.36,1.68,25,10.18,32.71,20.76a60.62,60.62,0,0,1,9.05,17.63c2.07,6.33,3.45,12.91,4.93,19.57a125.79,125.79,0,0,0,5.73,20,52.43,52.43,0,0,0,12.12,18.14,36.78,36.78,0,0,0,21.22,10.24c8.33,1,17-1.18,24.49-5.07a60.16,60.16,0,0,0,19.21-15.9c5.24-6.47,9.47-13.68,13.73-21s8.54-14.88,14.32-21.86a66.07,66.07,0,0,1,21.87-17.65,46.39,46.39,0,0,1,30.18-3.43c10.29,2.11,19.11,7.39,27.34,12.81s15.91,11.62,24.25,17,17.38,10,27.64,11.84a77.14,77.14,0,0,0,31.19-.41,73.76,73.76,0,0,0,28.3-12.25,59.8,59.8,0,0,0,10.9-10,60.57,60.57,0,0,0,7.48-12.12c4-8.55,6.13-17.65,8.35-26.68s4.39-18.14,8.8-26.66a58.09,58.09,0,0,1,19.07-21.91,39.78,39.78,0,0,1,30.09-6.19c10.45,2.08,18.81,8.25,25.1,15,13,13.75,17.85,30.74,27.21,44.72,4.63,7,10.35,13.47,17.75,17.88a45,45,0,0,0,25.06,5.83c17.62-1.12,33.19-9.37,45.21-19.22,12.26-9.87,22.48-21,34.25-30.14s25.42-16.06,39.92-18.1a52.58,52.58,0,0,1,21.26,1.12,45.6,45.6,0,0,1,17.2,9.21c9.37,8.11,14.8,18,19.19,27s7.88,17.82,12.39,25.28,9.88,13.69,16.07,18c12.85,8.33,26.75,8.4,34.41,6C6674.81,1620.43,6677.16,1616.63,6677.37,1616.9Z"/><path class="cls-3" d="M6738.67,1605.32s-1.12.12-3.36.2c-1.11,0-2.48-.29-4.12-.48a39.77,39.77,0,0,1-5.41-1.69c-8.06-3-18.09-10.31-28.85-21.08q-4-4.05-8.25-8.74c-2.88-3.08-5.45-6.62-9-9.57a51.05,51.05,0,0,0-28.53-11.27,42.5,42.5,0,0,0-32.92,11c-9.32,8-16.34,18.57-25.51,28.61a71.71,71.71,0,0,1-16.34,13.76,55.29,55.29,0,0,1-22.34,7.25c-16.38,1.66-33.24-2.24-49.19-8s-31.45-13.77-48.74-18.88a102.64,102.64,0,0,0-26.9-4.68,66.23,66.23,0,0,0-27.16,5.15c-17.32,7.18-30.85,20.29-47.15,31a101.16,101.16,0,0,1-27.29,13,116.64,116.64,0,0,1-31.27,4.7,129,129,0,0,1-62.08-14.92,142.42,142.42,0,0,1-47.1-40.67c-12.63-16.39-19.55-35-28.66-52-4.62-8.47-9.85-16.69-16.67-23.66a72.36,72.36,0,0,0-24.56-16.44c-9.32-3.75-19.91-5-29.6-2.71a50.53,50.53,0,0,0-24.59,14,70.16,70.16,0,0,0-14.71,22.13,157.11,157.11,0,0,0-7.61,24.47c-2,8.21-3.84,16.4-6.43,24.36a99.29,99.29,0,0,1-10.54,22.7,109.45,109.45,0,0,1-35.57,34.81,114,114,0,0,1-46.4,16.27,111.48,111.48,0,0,1-45.88-4.6c-28.09-8.75-47.91-27.69-55.32-47-3.82-9.65-5.75-19-8.51-27.23s-6-15.74-11-21.27c-10.16-11.11-23.61-14.94-32-14.23-8.66.71-12,4.2-12.14,3.83,0,.24,3.21-3.45,12.09-4.37,8.59-.9,22.42,2.83,33,14.12,5.25,5.68,8.65,13.25,11.51,21.56s4.89,17.62,8.73,27.09c7.41,18.9,26.88,37.29,54.42,45.75a109,109,0,0,0,44.8,4.33,111.08,111.08,0,0,0,45.23-16,106.9,106.9,0,0,0,34.66-34.12c9-13.81,12.73-30,16.57-46.44a159.19,159.19,0,0,1,7.67-24.83,72.46,72.46,0,0,1,15.21-22.94,53.5,53.5,0,0,1,26.08-14.85c10.42-2.46,21.81-1.11,31.61,2.82a75.32,75.32,0,0,1,25.65,17.13c7.12,7.26,12.44,15.65,17.14,24.24,9.25,17.26,16.07,35.6,28.47,51.67a139.63,139.63,0,0,0,46.1,39.85,125.68,125.68,0,0,0,60.41,14.56,113.64,113.64,0,0,0,30.34-4.53,98.41,98.41,0,0,0,26.48-12.55c16-10.45,29.67-23.7,47.7-31.18a69.43,69.43,0,0,1,28.46-5.33,105.59,105.59,0,0,1,27.74,4.86c17.58,5.25,33.06,13.33,48.83,19.06s32.2,9.53,47.9,8a52.79,52.79,0,0,0,21.35-6.84,70,70,0,0,0,15.91-13.3c9.09-9.84,16.2-20.49,25.85-28.64a44.53,44.53,0,0,1,34.46-11.25,52.41,52.41,0,0,1,29.41,11.85c3.64,3.13,6.17,6.71,9,9.78s5.46,6.06,8.1,8.77c10.56,10.81,20.36,18.16,28.2,21.26C6733.84,1606.29,6738.76,1605,6738.67,1605.32Z"/><path class="cls-7" d="M5726.18,1478.67c0,.74-5.74,1.35-12.82,1.35s-12.81-.61-12.81-1.35,5.74-1.36,12.81-1.36S5726.18,1477.92,5726.18,1478.67Z"/><path class="cls-7" d="M5726.18,1525.82c0,.75-5.74,1.36-12.82,1.36s-12.81-.61-12.81-1.36,5.74-1.35,12.81-1.35S5726.18,1525.08,5726.18,1525.82Z"/><path class="cls-7" d="M5726.18,1573c0,.75-5.74,1.36-12.82,1.36s-12.81-.61-12.81-1.36,5.74-1.35,12.81-1.35S5726.18,1572.24,5726.18,1573Z"/><path class="cls-7" d="M5726.18,1620.14c0,.75-5.74,1.36-12.82,1.36s-12.81-.61-12.81-1.36,5.74-1.35,12.81-1.35S5726.18,1619.4,5726.18,1620.14Z"/><path class="cls-7" d="M5726.18,1667.3c0,.75-5.74,1.36-12.82,1.36s-12.81-.61-12.81-1.36,5.74-1.35,12.81-1.35S5726.18,1666.56,5726.18,1667.3Z"/><path class="cls-7" d="M5844,1727.92c0,.75-11.47,1.35-25.63,1.35s-25.63-.6-25.63-1.35,11.48-1.35,25.63-1.35S5844,1727.17,5844,1727.92Z"/><path class="cls-7" d="M6069.91,1727.92c0,.75-11.48,1.35-25.63,1.35s-25.63-.6-25.63-1.35,11.47-1.35,25.63-1.35S6069.91,1727.17,6069.91,1727.92Z"/><path class="cls-7" d="M6295.86,1727.92c0,.75-11.48,1.35-25.63,1.35s-25.63-.6-25.63-1.35,11.47-1.35,25.63-1.35S6295.86,1727.17,6295.86,1727.92Z"/><path class="cls-7" d="M6521.8,1727.92c0,.75-11.47,1.35-25.62,1.35s-25.63-.6-25.63-1.35,11.47-1.35,25.63-1.35S6521.8,1727.17,6521.8,1727.92Z"/><path class="cls-7" d="M6747.75,1727.92c0,.75-11.47,1.35-25.62,1.35s-25.63-.6-25.63-1.35,11.47-1.35,25.63-1.35S6747.75,1727.17,6747.75,1727.92Z"/><text class="cls-12" transform="translate(77.68 246.94)">CENTRALISATION DU REPORTING POUR ANALYSE</text></g></g></svg>