<svg xmlns="http://www.w3.org/2000/svg" viewBox="0 0 2094.19 950.44"><defs><style>.cls-1{fill:#59595b;}.cls-2{fill:#1a2e35;}.cls-3{fill:#ff735d;}.cls-4{fill:#375a64;}.cls-5{fill:#a4a4a7;}.cls-6{fill:#f5f5f5;}.cls-7{fill:#e1e1e1;}.cls-8{fill:#2f3f51;}.cls-9{fill:#fff;}.cls-10{fill:#ececec;}.cls-11{fill:#fafafa;}.cls-12{font-size:86px;font-family:Poppins-Bold, Poppins;font-weight:700;}.cls-12,.cls-13{fill:#0369a1;}.cls-13{font-size:58px;font-family:Poppins-MediumItalic, Poppins;font-weight:500;font-style:italic;}</style></defs><g id="Layer_2" data-name="Layer 2"><g id="Layer_1-2" data-name="Layer 1"><path class="cls-1" d="M1129.51,675.52V664.93h2v10.59Zm12.64,0V664.93h21.17v10.59Zm31.76,0V664.93h21.18v10.59Zm31.77,0V664.93h328v10.59Z"/><rect class="cls-1" x="76.56" y="419.23" width="10.59" height="10.59"/><path class="cls-1" d="M97,429.82V419.23h19.66v10.59Zm29.49,0V419.23h19.67v10.59Z"/><polygon class="cls-1" points="155.98 429.82 155.98 419.23 171.86 419.23 171.86 435.12 161.27 435.12 161.27 429.82 155.98 429.82"/><path class="cls-1" d="M161.27,892.4V870.63h10.59V892.4Zm0-32.66V838h10.59v21.78Zm0-32.67V805.3h10.59v21.77Zm0-32.66V772.64h10.59v21.77Zm0-32.66V740h10.59v21.78Zm0-32.66V707.31h10.59v21.78Zm0-32.67V674.65h10.59v21.77Zm0-32.66V642h10.59v21.78Zm0-32.66V609.32h10.59V631.1Zm0-32.67V576.66h10.59v21.77Zm0-32.66V544h10.59v21.77Zm0-32.66V511.33h10.59v21.78Zm0-32.67V478.67h10.59v21.77Zm0-32.66V446h10.59v21.77Z"/><polygon class="cls-1" points="155.98 919.17 155.98 908.58 161.27 908.58 161.27 903.29 171.86 903.29 171.86 919.17 155.98 919.17"/><path class="cls-1" d="M103.45,919.17V908.58H121v10.59Zm26.26,0V908.58h17.51v10.59Z"/><rect class="cls-1" x="84.11" y="908.58" width="10.59" height="10.59"/><path class="cls-1" d="M69.21,596.08V585.49h2.05v10.59Zm12.64,0V585.49H103v10.59Zm31.77,0V585.49H134.8v10.59Zm31.77,0V585.49h21.18v10.59Z"/><path class="cls-1" d="M69.21,758.29V747.7h2.05v10.59Zm12.64,0V747.7H103v10.59Zm31.77,0V747.7H134.8v10.59Zm31.77,0V747.7h21.18v10.59Z"/><path class="cls-1" d="M165.1,677.18V666.59h2v10.59Zm12.63,0V666.59h21.18v10.59Zm31.77,0V666.59h21.18v10.59Zm31.77,0V666.59h328v10.59Z"/><rect class="cls-2" y="390.02" width="70.46" height="70.46"/><rect class="cls-3" y="555.55" width="70.46" height="70.46"/><rect class="cls-4" y="717.76" width="70.46" height="70.47"/><rect class="cls-5" y="879.98" width="70.46" height="70.46"/><rect class="cls-2" x="631.03" y="519.51" width="449.6" height="312.97"/><rect class="cls-4" x="569.25" y="612.35" width="462.49" height="114.74"/><rect class="cls-2" x="589.79" y="635.98" width="91.06" height="14.01"/><rect class="cls-2" x="589.79" y="660.09" width="91.06" height="14.01"/><rect class="cls-2" x="589.79" y="685.01" width="91.06" height="14.01"/><path class="cls-2" d="M716.86,644.45a5.23,5.23,0,1,1-5.22-5.23A5.22,5.22,0,0,1,716.86,644.45Z"/><path class="cls-2" d="M739.91,644.45a5.22,5.22,0,1,1-5.22-5.23A5.22,5.22,0,0,1,739.91,644.45Z"/><path class="cls-2" d="M763,644.45a5.22,5.22,0,1,1-5.22-5.23A5.22,5.22,0,0,1,763,644.45Z"/><path class="cls-2" d="M786,644.45a5.23,5.23,0,1,1-5.23-5.23A5.23,5.23,0,0,1,786,644.45Z"/><path class="cls-2" d="M964.65,644.45a5.23,5.23,0,1,1-5.22-5.23A5.22,5.22,0,0,1,964.65,644.45Z"/><path class="cls-2" d="M988.16,644.45a5.23,5.23,0,1,1-5.23-5.23A5.23,5.23,0,0,1,988.16,644.45Z"/><path class="cls-2" d="M809.07,644.45a5.23,5.23,0,1,1-5.23-5.23A5.23,5.23,0,0,1,809.07,644.45Z"/><path class="cls-2" d="M922.28,644.45a5.23,5.23,0,1,1-5.23-5.23A5.23,5.23,0,0,1,922.28,644.45Z"/><path class="cls-6" d="M832.12,644.45a5.23,5.23,0,1,1-5.22-5.23A5.22,5.22,0,0,1,832.12,644.45Z"/><path class="cls-6" d="M855.17,644.45a5.22,5.22,0,1,1-5.22-5.23A5.22,5.22,0,0,1,855.17,644.45Z"/><path class="cls-6" d="M901.94,644.45a5.23,5.23,0,1,1-5.22-5.23A5.22,5.22,0,0,1,901.94,644.45Z"/><path class="cls-6" d="M1007.28,644.45a5.22,5.22,0,1,1-5.22-5.23A5.22,5.22,0,0,1,1007.28,644.45Z"/><path class="cls-3" d="M878.22,644.45a5.22,5.22,0,1,1-5.22-5.23A5.22,5.22,0,0,1,878.22,644.45Z"/><path class="cls-3" d="M944.23,644.45a5.23,5.23,0,1,1-5.23-5.23A5.23,5.23,0,0,1,944.23,644.45Z"/><path class="cls-2" d="M996.84,669.63a5.22,5.22,0,1,1,5.22,5.22A5.22,5.22,0,0,1,996.84,669.63Z"/><path class="cls-2" d="M973.78,669.63a5.23,5.23,0,1,1,5.23,5.22A5.23,5.23,0,0,1,973.78,669.63Z"/><path class="cls-2" d="M950.73,669.63a5.23,5.23,0,1,1,5.23,5.22A5.23,5.23,0,0,1,950.73,669.63Z"/><path class="cls-2" d="M927.68,669.63a5.23,5.23,0,1,1,5.22,5.22A5.23,5.23,0,0,1,927.68,669.63Z"/><path class="cls-2" d="M749.05,669.63a5.22,5.22,0,1,1,5.22,5.22A5.23,5.23,0,0,1,749.05,669.63Z"/><path class="cls-2" d="M725.54,669.63a5.23,5.23,0,1,1,5.22,5.22A5.23,5.23,0,0,1,725.54,669.63Z"/><path class="cls-2" d="M904.63,669.63a5.22,5.22,0,1,1,5.22,5.22A5.23,5.23,0,0,1,904.63,669.63Z"/><path class="cls-2" d="M791.42,669.63a5.23,5.23,0,1,1,5.22,5.22A5.23,5.23,0,0,1,791.42,669.63Z"/><path class="cls-6" d="M881.58,669.63a5.22,5.22,0,1,1,5.22,5.22A5.22,5.22,0,0,1,881.58,669.63Z"/><path class="cls-6" d="M858.52,669.63a5.23,5.23,0,1,1,5.23,5.22A5.23,5.23,0,0,1,858.52,669.63Z"/><path class="cls-6" d="M811.75,669.63a5.23,5.23,0,1,1,5.23,5.22A5.23,5.23,0,0,1,811.75,669.63Z"/><path class="cls-6" d="M706.41,669.63a5.23,5.23,0,1,1,5.23,5.22A5.23,5.23,0,0,1,706.41,669.63Z"/><path class="cls-3" d="M835.47,669.63a5.23,5.23,0,1,1,5.22,5.22A5.23,5.23,0,0,1,835.47,669.63Z"/><path class="cls-3" d="M769.47,669.63a5.23,5.23,0,1,1,5.22,5.22A5.23,5.23,0,0,1,769.47,669.63Z"/><path class="cls-2" d="M716.86,692a5.23,5.23,0,1,1-5.22-5.22A5.22,5.22,0,0,1,716.86,692Z"/><circle class="cls-2" cx="734.69" cy="692.02" r="5.22"/><circle class="cls-2" cx="757.74" cy="692.02" r="5.22"/><circle class="cls-2" cx="780.79" cy="692.02" r="5.22"/><circle class="cls-2" cx="959.43" cy="692.02" r="5.22"/><circle class="cls-2" cx="982.93" cy="692.02" r="5.22"/><path class="cls-2" d="M809.07,692a5.23,5.23,0,1,1-5.23-5.22A5.23,5.23,0,0,1,809.07,692Z"/><path class="cls-2" d="M922.28,692a5.23,5.23,0,1,1-5.23-5.22A5.23,5.23,0,0,1,922.28,692Z"/><circle class="cls-6" cx="826.9" cy="692.02" r="5.22"/><path class="cls-6" d="M855.17,692A5.22,5.22,0,1,1,850,686.8,5.22,5.22,0,0,1,855.17,692Z"/><path class="cls-6" d="M901.94,692a5.23,5.23,0,1,1-5.22-5.22A5.22,5.22,0,0,1,901.94,692Z"/><path class="cls-6" d="M1007.28,692a5.22,5.22,0,1,1-5.22-5.22A5.22,5.22,0,0,1,1007.28,692Z"/><path class="cls-3" d="M878.22,692A5.22,5.22,0,1,1,873,686.8,5.22,5.22,0,0,1,878.22,692Z"/><circle class="cls-3" cx="939" cy="692.02" r="5.22"/><rect class="cls-4" x="569.25" y="753.94" width="462.49" height="114.74"/><path class="cls-2" d="M715.72,784.9a5.23,5.23,0,1,1-5.23-5.22A5.23,5.23,0,0,1,715.72,784.9Z"/><path class="cls-2" d="M738.77,784.9a5.23,5.23,0,1,1-5.23-5.22A5.23,5.23,0,0,1,738.77,784.9Z"/><path class="cls-2" d="M761.82,784.9a5.23,5.23,0,1,1-5.22-5.22A5.23,5.23,0,0,1,761.82,784.9Z"/><path class="cls-2" d="M784.87,784.9a5.23,5.23,0,1,1-5.22-5.22A5.23,5.23,0,0,1,784.87,784.9Z"/><path class="cls-2" d="M963.5,784.9a5.22,5.22,0,1,1-5.22-5.22A5.22,5.22,0,0,1,963.5,784.9Z"/><path class="cls-2" d="M987,784.9a5.23,5.23,0,1,1-5.22-5.22A5.23,5.23,0,0,1,987,784.9Z"/><path class="cls-2" d="M807.92,784.9a5.22,5.22,0,1,1-5.22-5.22A5.23,5.23,0,0,1,807.92,784.9Z"/><path class="cls-2" d="M921.13,784.9a5.23,5.23,0,1,1-5.22-5.22A5.23,5.23,0,0,1,921.13,784.9Z"/><path class="cls-6" d="M831,784.9a5.23,5.23,0,1,1-5.23-5.22A5.23,5.23,0,0,1,831,784.9Z"/><path class="cls-6" d="M854,784.9a5.23,5.23,0,1,1-5.23-5.22A5.23,5.23,0,0,1,854,784.9Z"/><path class="cls-6" d="M900.8,784.9a5.23,5.23,0,1,1-5.23-5.22A5.23,5.23,0,0,1,900.8,784.9Z"/><path class="cls-6" d="M1006.14,784.9a5.23,5.23,0,1,1-5.23-5.22A5.23,5.23,0,0,1,1006.14,784.9Z"/><path class="cls-3" d="M877.08,784.9a5.23,5.23,0,1,1-5.22-5.22A5.23,5.23,0,0,1,877.08,784.9Z"/><path class="cls-3" d="M943.08,784.9a5.23,5.23,0,1,1-5.22-5.22A5.23,5.23,0,0,1,943.08,784.9Z"/><path class="cls-2" d="M995.69,810.08a5.23,5.23,0,1,1,5.22,5.23A5.22,5.22,0,0,1,995.69,810.08Z"/><circle class="cls-2" cx="977.86" cy="810.08" r="5.22"/><path class="cls-2" d="M949.59,810.08a5.22,5.22,0,1,1,5.22,5.23A5.22,5.22,0,0,1,949.59,810.08Z"/><path class="cls-2" d="M926.53,810.08a5.23,5.23,0,1,1,5.23,5.23A5.23,5.23,0,0,1,926.53,810.08Z"/><path class="cls-2" d="M747.9,810.08a5.23,5.23,0,1,1,5.22,5.23A5.22,5.22,0,0,1,747.9,810.08Z"/><path class="cls-2" d="M724.39,810.08a5.23,5.23,0,1,1,5.23,5.23A5.23,5.23,0,0,1,724.39,810.08Z"/><circle class="cls-2" cx="908.71" cy="810.08" r="5.22"/><circle class="cls-2" cx="795.5" cy="810.08" r="5.22"/><path class="cls-6" d="M880.43,810.08a5.23,5.23,0,1,1,5.22,5.23A5.22,5.22,0,0,1,880.43,810.08Z"/><path class="cls-6" d="M857.38,810.08a5.23,5.23,0,1,1,5.22,5.23A5.22,5.22,0,0,1,857.38,810.08Z"/><circle class="cls-6" cx="815.83" cy="810.08" r="5.22"/><path class="cls-6" d="M705.27,810.08a5.23,5.23,0,1,1,5.22,5.23A5.22,5.22,0,0,1,705.27,810.08Z"/><path class="cls-3" d="M834.33,810.08a5.22,5.22,0,1,1,5.22,5.23A5.22,5.22,0,0,1,834.33,810.08Z"/><path class="cls-3" d="M768.32,810.08a5.23,5.23,0,1,1,5.23,5.23A5.23,5.23,0,0,1,768.32,810.08Z"/><path class="cls-2" d="M715.72,832.48a5.23,5.23,0,1,1-5.23-5.23A5.23,5.23,0,0,1,715.72,832.48Z"/><path class="cls-2" d="M738.77,832.48a5.23,5.23,0,1,1-5.23-5.23A5.23,5.23,0,0,1,738.77,832.48Z"/><path class="cls-2" d="M761.82,832.48a5.23,5.23,0,1,1-5.22-5.23A5.22,5.22,0,0,1,761.82,832.48Z"/><path class="cls-2" d="M784.87,832.48a5.23,5.23,0,1,1-5.22-5.23A5.22,5.22,0,0,1,784.87,832.48Z"/><path class="cls-2" d="M963.5,832.48a5.22,5.22,0,1,1-5.22-5.23A5.22,5.22,0,0,1,963.5,832.48Z"/><path class="cls-2" d="M987,832.48a5.23,5.23,0,1,1-5.22-5.23A5.22,5.22,0,0,1,987,832.48Z"/><path class="cls-2" d="M807.92,832.48a5.22,5.22,0,1,1-5.22-5.23A5.22,5.22,0,0,1,807.92,832.48Z"/><path class="cls-2" d="M921.13,832.48a5.23,5.23,0,1,1-5.22-5.23A5.22,5.22,0,0,1,921.13,832.48Z"/><path class="cls-6" d="M831,832.48a5.23,5.23,0,1,1-5.23-5.23A5.23,5.23,0,0,1,831,832.48Z"/><path class="cls-6" d="M854,832.48a5.23,5.23,0,1,1-5.23-5.23A5.23,5.23,0,0,1,854,832.48Z"/><path class="cls-6" d="M900.8,832.48a5.23,5.23,0,1,1-5.23-5.23A5.23,5.23,0,0,1,900.8,832.48Z"/><path class="cls-6" d="M1006.14,832.48a5.23,5.23,0,1,1-5.23-5.23A5.23,5.23,0,0,1,1006.14,832.48Z"/><path class="cls-3" d="M877.08,832.48a5.23,5.23,0,1,1-5.22-5.23A5.22,5.22,0,0,1,877.08,832.48Z"/><path class="cls-3" d="M943.08,832.48a5.23,5.23,0,1,1-5.22-5.23A5.22,5.22,0,0,1,943.08,832.48Z"/><rect class="cls-2" x="589.79" y="777.58" width="91.06" height="14.01"/><rect class="cls-2" x="589.79" y="801.68" width="91.06" height="14.01"/><rect class="cls-2" x="589.79" y="826.61" width="91.06" height="14.01"/><polygon class="cls-2" points="1129.51 726.9 1031.74 727.09 1031.74 612.35 1129.51 612.16 1129.51 726.9"/><polygon class="cls-2" points="1129.51 867.61 1031.74 867.79 1031.74 753.05 1129.51 752.87 1129.51 867.61"/><rect class="cls-2" x="593.14" y="544.44" width="91.06" height="14.01"/><polygon class="cls-2" points="1129.51 587.39 1031.74 587.58 1031.74 471.96 1129.51 471.77 1129.51 587.39"/><rect class="cls-4" x="572.6" y="471.77" width="462.49" height="114.74"/><rect class="cls-2" x="593.14" y="495.4" width="91.06" height="14.01"/><rect class="cls-2" x="593.14" y="519.51" width="91.06" height="14.01"/><path class="cls-2" d="M720.21,503.87a5.23,5.23,0,1,1-5.22-5.23A5.22,5.22,0,0,1,720.21,503.87Z"/><path class="cls-2" d="M743.26,503.87a5.23,5.23,0,1,1-5.22-5.23A5.22,5.22,0,0,1,743.26,503.87Z"/><path class="cls-2" d="M766.31,503.87a5.22,5.22,0,1,1-5.22-5.23A5.22,5.22,0,0,1,766.31,503.87Z"/><path class="cls-2" d="M789.37,503.87a5.23,5.23,0,1,1-5.23-5.23A5.23,5.23,0,0,1,789.37,503.87Z"/><path class="cls-2" d="M968,503.87a5.23,5.23,0,1,1-5.23-5.23A5.23,5.23,0,0,1,968,503.87Z"/><path class="cls-2" d="M991.51,503.87a5.23,5.23,0,1,1-5.23-5.23A5.23,5.23,0,0,1,991.51,503.87Z"/><path class="cls-2" d="M812.42,503.87a5.23,5.23,0,1,1-5.23-5.23A5.23,5.23,0,0,1,812.42,503.87Z"/><path class="cls-2" d="M925.63,503.87a5.23,5.23,0,1,1-5.23-5.23A5.23,5.23,0,0,1,925.63,503.87Z"/><path class="cls-6" d="M835.47,503.87a5.23,5.23,0,1,1-5.22-5.23A5.22,5.22,0,0,1,835.47,503.87Z"/><path class="cls-6" d="M858.52,503.87a5.23,5.23,0,1,1-5.22-5.23A5.22,5.22,0,0,1,858.52,503.87Z"/><path class="cls-6" d="M905.29,503.87a5.23,5.23,0,1,1-5.22-5.23A5.22,5.22,0,0,1,905.29,503.87Z"/><path class="cls-6" d="M1010.63,503.87a5.23,5.23,0,1,1-5.22-5.23A5.22,5.22,0,0,1,1010.63,503.87Z"/><path class="cls-3" d="M881.57,503.87a5.22,5.22,0,1,1-5.22-5.23A5.22,5.22,0,0,1,881.57,503.87Z"/><path class="cls-3" d="M947.58,503.87a5.23,5.23,0,1,1-5.23-5.23A5.23,5.23,0,0,1,947.58,503.87Z"/><path class="cls-2" d="M1000.18,529.05a5.23,5.23,0,1,1,5.23,5.22A5.23,5.23,0,0,1,1000.18,529.05Z"/><circle class="cls-2" cx="982.36" cy="529.05" r="5.22"/><path class="cls-2" d="M954.08,529.05a5.23,5.23,0,1,1,5.22,5.22A5.23,5.23,0,0,1,954.08,529.05Z"/><path class="cls-2" d="M931,529.05a5.23,5.23,0,1,1,5.22,5.22A5.23,5.23,0,0,1,931,529.05Z"/><path class="cls-2" d="M752.4,529.05a5.22,5.22,0,1,1,5.22,5.22A5.22,5.22,0,0,1,752.4,529.05Z"/><path class="cls-2" d="M728.89,529.05a5.23,5.23,0,1,1,5.22,5.22A5.23,5.23,0,0,1,728.89,529.05Z"/><path class="cls-2" d="M908,529.05a5.22,5.22,0,1,1,5.22,5.22A5.22,5.22,0,0,1,908,529.05Z"/><circle class="cls-2" cx="799.99" cy="529.05" r="5.22"/><path class="cls-6" d="M884.92,529.05a5.23,5.23,0,1,1,5.23,5.22A5.23,5.23,0,0,1,884.92,529.05Z"/><circle class="cls-6" cx="867.1" cy="529.05" r="5.22"/><path class="cls-6" d="M815.1,529.05a5.23,5.23,0,1,1,5.23,5.22A5.23,5.23,0,0,1,815.1,529.05Z"/><circle class="cls-6" cx="714.99" cy="529.05" r="5.22"/><path class="cls-3" d="M838.82,529.05a5.23,5.23,0,1,1,5.22,5.22A5.23,5.23,0,0,1,838.82,529.05Z"/><path class="cls-3" d="M772.82,529.05a5.23,5.23,0,1,1,5.22,5.22A5.23,5.23,0,0,1,772.82,529.05Z"/><path class="cls-2" d="M720.21,551.44a5.23,5.23,0,1,1-5.22-5.22A5.23,5.23,0,0,1,720.21,551.44Z"/><path class="cls-2" d="M743.26,551.44a5.23,5.23,0,1,1-5.22-5.22A5.23,5.23,0,0,1,743.26,551.44Z"/><path class="cls-2" d="M766.31,551.44a5.22,5.22,0,1,1-5.22-5.22A5.23,5.23,0,0,1,766.31,551.44Z"/><path class="cls-2" d="M789.37,551.44a5.23,5.23,0,1,1-5.23-5.22A5.23,5.23,0,0,1,789.37,551.44Z"/><path class="cls-2" d="M968,551.44a5.23,5.23,0,1,1-5.23-5.22A5.23,5.23,0,0,1,968,551.44Z"/><path class="cls-2" d="M991.51,551.44a5.23,5.23,0,1,1-5.23-5.22A5.23,5.23,0,0,1,991.51,551.44Z"/><path class="cls-2" d="M812.42,551.44a5.23,5.23,0,1,1-5.23-5.22A5.23,5.23,0,0,1,812.42,551.44Z"/><path class="cls-2" d="M925.63,551.44a5.23,5.23,0,1,1-5.23-5.22A5.23,5.23,0,0,1,925.63,551.44Z"/><path class="cls-6" d="M835.47,551.44a5.23,5.23,0,1,1-5.22-5.22A5.23,5.23,0,0,1,835.47,551.44Z"/><path class="cls-6" d="M858.52,551.44a5.23,5.23,0,1,1-5.22-5.22A5.23,5.23,0,0,1,858.52,551.44Z"/><path class="cls-6" d="M905.29,551.44a5.23,5.23,0,1,1-5.22-5.22A5.23,5.23,0,0,1,905.29,551.44Z"/><path class="cls-6" d="M1010.63,551.44a5.23,5.23,0,1,1-5.22-5.22A5.23,5.23,0,0,1,1010.63,551.44Z"/><path class="cls-3" d="M881.57,551.44a5.22,5.22,0,1,1-5.22-5.22A5.23,5.23,0,0,1,881.57,551.44Z"/><path class="cls-3" d="M947.58,551.44a5.23,5.23,0,1,1-5.23-5.22A5.23,5.23,0,0,1,947.58,551.44Z"/><path class="cls-7" d="M1439.12,670.23a4.85,4.85,0,1,1-4.85-4.85A4.85,4.85,0,0,1,1439.12,670.23Z"/><path class="cls-7" d="M1453.56,670.23a4.85,4.85,0,1,1-4.84-4.85A4.84,4.84,0,0,1,1453.56,670.23Z"/><path class="cls-4" d="M2074.59,392.9H1446.65a19.6,19.6,0,0,0-19.6,19.6V856a19.61,19.61,0,0,0,19.6,19.61h241s15.33,47.4-32.19,71.93h225.35s-53.66-18.4-39.86-71.93h233.64a19.61,19.61,0,0,0,19.6-19.61V412.5A19.6,19.6,0,0,0,2074.59,392.9Z"/><path class="cls-8" d="M1769,829c8.54,12.21-4.83,25.58-17,17a4.4,4.4,0,0,1-1-1.06c-8.52-12.2,4.83-25.55,17-17A4.4,4.4,0,0,1,1769,829Z"/><path class="cls-9" d="M1465.55,401h590.15a27.68,27.68,0,0,1,27.68,27.68V794.49a0,0,0,0,1,0,0H1437.86a0,0,0,0,1,0,0V428.71A27.68,27.68,0,0,1,1465.55,401Z"/><path class="cls-10" d="M1464,401h597.92a21.46,21.46,0,0,1,21.46,21.46v11.24a0,0,0,0,1,0,0H1437.86a0,0,0,0,1,0,0v-6.56A26.13,26.13,0,0,1,1464,401Z"/><path class="cls-7" d="M1489.33,418.06a4.54,4.54,0,1,1-4.54-4.54A4.53,4.53,0,0,1,1489.33,418.06Z"/><path class="cls-8" d="M1962.32,875.69c0,.21-89.35.37-199.55.37s-199.58-.16-199.58-.37,89.34-.38,199.58-.38S1962.32,875.48,1962.32,875.69Z"/><polygon class="cls-6" points="1645.83 656.59 1465.82 657.11 1466.17 780.7 1615.4 780.27 1635.64 780.21 1646.19 780.18 1645.83 656.59"/><path class="cls-2" d="M1479.67,767.45c-.22,0-.45-21-.53-46.83s0-46.82.26-46.82.45,21,.53,46.82S1479.89,767.45,1479.67,767.45Z"/><path class="cls-10" d="M1635.85,754.1c0,.22-35.11.49-78.4.62s-78.42,0-78.42-.17,35.1-.49,78.41-.62S1635.85,753.88,1635.85,754.1Z"/><path class="cls-10" d="M1635.81,740.36c0,.22-35.1.49-78.4.62s-78.42,0-78.42-.17,35.1-.49,78.42-.62S1635.81,740.14,1635.81,740.36Z"/><path class="cls-10" d="M1635.77,726.62c0,.22-35.1.49-78.4.62s-78.42,0-78.42-.17,35.1-.49,78.42-.62S1635.77,726.4,1635.77,726.62Z"/><path class="cls-10" d="M1635.73,712.88c0,.22-35.1.49-78.4.62s-78.42,0-78.42-.17,35.1-.49,78.42-.62S1635.73,712.66,1635.73,712.88Z"/><path class="cls-10" d="M1635.69,699.14c0,.22-35.1.49-78.4.62s-78.41,0-78.42-.17,35.1-.49,78.42-.62S1635.69,698.92,1635.69,699.14Z"/><path class="cls-10" d="M1635.65,685.4c0,.22-35.1.49-78.4.62s-78.41.05-78.42-.17,35.1-.49,78.42-.62S1635.65,685.18,1635.65,685.4Z"/><path class="cls-10" d="M1635.61,671.66c0,.22-35.1.49-78.4.62s-78.41.05-78.41-.17,35.09-.49,78.41-.62S1635.61,671.44,1635.61,671.66Z"/><rect class="cls-3" x="1489.65" y="745.99" width="11.24" height="21.41" transform="translate(-2.17 4.31) rotate(-0.16)"/><rect class="cls-3" x="1571.32" y="745.75" width="11.24" height="21.41" transform="translate(-2.16 4.52) rotate(-0.16)"/><rect class="cls-3" x="1511.68" y="730.18" width="11.24" height="37.16" transform="translate(-2.16 4.4) rotate(-0.17)"/><rect class="cls-3" x="1552.87" y="720.39" width="11.24" height="46.83" transform="translate(-2.13 4.49) rotate(-0.16)"/><rect class="cls-3" x="1532.49" y="692" width="11.24" height="75.28" transform="translate(-2.11 4.46) rotate(-0.17)"/><rect class="cls-3" x="1593.05" y="705.75" width="11.24" height="61.35" transform="translate(-2.11 4.61) rotate(-0.16)"/><path class="cls-2" d="M1617.79,767.05c0,.22-30.86.48-68.92.59s-68.92,0-68.92-.19,30.85-.49,68.92-.6S1617.78,766.83,1617.79,767.05Z"/><polygon class="cls-6" points="1464.18 463.01 1464.18 644.52 1755.56 644.52 1781.12 644.52 1856.81 644.52 1856.81 463.01 1464.18 463.01"/><path class="cls-2" d="M1491.8,588.39v5.73h-.59v-5.21h-1.35v-.52Z"/><path class="cls-2" d="M1493.18,591.25c0-1.82,1-2.91,2.28-2.91s2.29,1.09,2.29,2.91-1,2.92-2.29,2.92S1493.18,593.08,1493.18,591.25Zm4,0c0-1.53-.69-2.37-1.69-2.37s-1.69.84-1.69,2.37.69,2.38,1.69,2.38S1497.15,592.78,1497.15,591.25Z"/><path class="cls-2" d="M1494.13,558v.52h-4v-.42l2.38-2.33c.65-.64.77-1,.77-1.42,0-.66-.47-1.07-1.34-1.07a1.93,1.93,0,0,0-1.57.64l-.41-.36a2.54,2.54,0,0,1,2-.82c1.17,0,1.9.59,1.9,1.55a2.34,2.34,0,0,1-.94,1.79L1491,558Z"/><path class="cls-2" d="M1494.84,555.62c0-1.82,1-2.91,2.28-2.91s2.29,1.09,2.29,2.91-1,2.92-2.29,2.92S1494.84,557.45,1494.84,555.62Zm4,0c0-1.53-.69-2.37-1.69-2.37s-1.68.84-1.68,2.37.69,2.38,1.68,2.38S1498.81,557.15,1498.81,555.62Z"/><path class="cls-2" d="M1494,521.21c0,1-.69,1.7-2.07,1.7a3,3,0,0,1-2.07-.74l.29-.47a2.49,2.49,0,0,0,1.78.67c.94,0,1.47-.45,1.47-1.16s-.49-1.14-1.55-1.14h-.41v-.43l1.59-2h-2.93v-.52h3.68v.41l-1.62,2C1493.39,519.65,1494,520.29,1494,521.21Z"/><path class="cls-2" d="M1494.84,520c0-1.82,1-2.91,2.28-2.91s2.29,1.09,2.29,2.91-1,2.92-2.29,2.92S1494.84,521.82,1494.84,520Zm4,0c0-1.53-.69-2.37-1.69-2.37s-1.68.84-1.68,2.37.69,2.38,1.68,2.38S1498.81,521.52,1498.81,520Z"/><path class="cls-2" d="M1517.1,610.06c0-1.83,1-2.92,2.28-2.92s2.3,1.09,2.3,2.92-1,2.91-2.3,2.91S1517.1,611.88,1517.1,610.06Zm4,0c0-1.53-.69-2.38-1.69-2.38s-1.68.85-1.68,2.38.69,2.37,1.68,2.37S1521.07,611.59,1521.07,610.06Z"/><path class="cls-2" d="M1559.52,607.19v5.73h-.6v-5.21h-1.35v-.52Z"/><path class="cls-2" d="M1604.22,612.4v.52h-4v-.42l2.39-2.33c.64-.64.77-1,.77-1.42,0-.66-.47-1.07-1.35-1.07a2,2,0,0,0-1.56.64L1600,608a2.59,2.59,0,0,1,2-.82c1.16,0,1.9.59,1.9,1.55a2.34,2.34,0,0,1-.94,1.79l-2,1.92Z"/><path class="cls-2" d="M1646.48,611.28c0,1-.69,1.69-2.07,1.69a3,3,0,0,1-2.07-.74l.29-.46a2.53,2.53,0,0,0,1.78.66c.95,0,1.47-.44,1.47-1.15s-.49-1.14-1.55-1.14h-.41v-.44l1.59-2h-2.93v-.52h3.68v.42l-1.62,2C1645.87,609.71,1646.48,610.36,1646.48,611.28Z"/><path class="cls-2" d="M1690,611.42h-1.15v1.5h-.59v-1.5H1685V611l3-3.8h.65l-2.93,3.7h2.49v-1.33h.57v1.33H1690Z"/><path class="cls-2" d="M1731.35,611.23c0,1-.68,1.74-2.08,1.74a3,3,0,0,1-2.06-.74l.29-.46a2.5,2.5,0,0,0,1.76.66c1,0,1.49-.48,1.49-1.17s-.46-1.2-1.91-1.2h-1.23l.3-2.87h3.14v.52h-2.62l-.2,1.83h.74C1730.69,609.54,1731.35,610.22,1731.35,611.23Z"/><path class="cls-2" d="M1774.15,611.21a1.79,1.79,0,0,1-2,1.76c-1.52,0-2.35-1.06-2.35-2.86,0-2,1.07-3,2.62-3a2.63,2.63,0,0,1,1.36.31l-.24.48a2,2,0,0,0-1.11-.27c-1.24,0-2,.79-2,2.35,0,.13,0,.29,0,.46a1.84,1.84,0,0,1,1.76-1A1.74,1.74,0,0,1,1774.15,611.21Zm-.58,0c0-.76-.56-1.24-1.44-1.24a1.33,1.33,0,0,0-1.48,1.25c0,.63.53,1.23,1.52,1.23A1.26,1.26,0,0,0,1773.57,611.23Z"/><path class="cls-2" d="M1816.27,607.19v.42l-2.4,5.31h-.64l2.36-5.21h-2.95v1.08h-.58v-1.6Z"/><path class="cls-2" d="M1816.58,591.53c0,.31-66.33.56-148.14.56s-148.14-.25-148.14-.56,66.31-.55,148.14-.55S1816.58,591.22,1816.58,591.53Z"/><path class="cls-2" d="M1816.58,555.72c0,.3-66.33.55-148.14.55s-148.14-.25-148.14-.55,66.31-.56,148.14-.56S1816.58,555.41,1816.58,555.72Z"/><path class="cls-2" d="M1816.58,519.9c0,.31-66.33.56-148.14.56s-148.14-.25-148.14-.56,66.31-.56,148.14-.56S1816.58,519.59,1816.58,519.9Z"/><path class="cls-3" d="M1520.3,591a1.91,1.91,0,1,1-1.91-1.91A1.9,1.9,0,0,1,1520.3,591Z"/><path class="cls-3" d="M1562.89,591a1.9,1.9,0,1,1-1.9-1.91A1.9,1.9,0,0,1,1562.89,591Z"/><path class="cls-3" d="M1605.49,591a1.9,1.9,0,1,1-1.9-1.91A1.9,1.9,0,0,1,1605.49,591Z"/><path class="cls-3" d="M1648.09,591a1.91,1.91,0,1,1-1.9-1.91A1.9,1.9,0,0,1,1648.09,591Z"/><path class="cls-3" d="M1690.69,591a1.91,1.91,0,1,1-1.91-1.91A1.9,1.9,0,0,1,1690.69,591Z"/><path class="cls-3" d="M1775.88,591a1.9,1.9,0,1,1-1.9-1.91A1.9,1.9,0,0,1,1775.88,591Z"/><path class="cls-3" d="M1733.28,591a1.9,1.9,0,1,1-1.9-1.91A1.9,1.9,0,0,1,1733.28,591Z"/><path class="cls-3" d="M1818.48,591a1.91,1.91,0,1,1-1.9-1.91A1.9,1.9,0,0,1,1818.48,591Z"/><path class="cls-7" d="M1539.71,591.53a1.25,1.25,0,1,1-1.25-1.25A1.25,1.25,0,0,1,1539.71,591.53Z"/><path class="cls-7" d="M1582.47,591.53a1.25,1.25,0,1,1-1.25-1.25A1.25,1.25,0,0,1,1582.47,591.53Z"/><path class="cls-7" d="M1625.22,591.53a1.25,1.25,0,1,1-1.24-1.25A1.24,1.24,0,0,1,1625.22,591.53Z"/><path class="cls-7" d="M1668,591.53a1.25,1.25,0,1,1-1.25-1.25A1.25,1.25,0,0,1,1668,591.53Z"/><path class="cls-7" d="M1710.74,591.53a1.25,1.25,0,1,1-1.25-1.25A1.25,1.25,0,0,1,1710.74,591.53Z"/><path class="cls-7" d="M1753.5,591.53a1.25,1.25,0,1,1-1.25-1.25A1.25,1.25,0,0,1,1753.5,591.53Z"/><path class="cls-7" d="M1796.26,591.53a1.25,1.25,0,1,1-1.25-1.25A1.25,1.25,0,0,1,1796.26,591.53Z"/><path class="cls-3" d="M1565.66,575.7A4.67,4.67,0,1,1,1561,571,4.67,4.67,0,0,1,1565.66,575.7Z"/><path class="cls-3" d="M1602.82,553.77a4.67,4.67,0,1,1-4.66-4.67A4.66,4.66,0,0,1,1602.82,553.77Z"/><path class="cls-3" d="M1649,555.72a4.67,4.67,0,1,1-4.67-4.67A4.67,4.67,0,0,1,1649,555.72Z"/><path class="cls-3" d="M1694,515.85a4.67,4.67,0,1,1-4.66-4.67A4.66,4.66,0,0,1,1694,515.85Z"/><path class="cls-3" d="M1736.05,541.2a4.67,4.67,0,1,1-4.67-4.66A4.67,4.67,0,0,1,1736.05,541.2Z"/><path class="cls-3" d="M1778.65,548a4.67,4.67,0,1,1-4.67-4.67A4.67,4.67,0,0,1,1778.65,548Z"/><path class="cls-3" d="M1818.48,575.7a7.6,7.6,0,0,1-1.1,0,22.6,22.6,0,0,1-3.18-.43,24.1,24.1,0,0,1-11.08-5.26,23.1,23.1,0,0,1-5.44-7.08,52.38,52.38,0,0,0-5.7-8.83c-2.41-2.83-5.51-5.73-9.63-6.72a12.34,12.34,0,0,0-6.37.23,17,17,0,0,0-5.91,3.35c-3.63,3-6.3,7.34-9.83,11.25a19.48,19.48,0,0,1-6.39,5,12.94,12.94,0,0,1-8.41.69A10.51,10.51,0,0,1,1739,562a40.34,40.34,0,0,1-2.77-8.51,49.15,49.15,0,0,0-2.53-8.63,6.85,6.85,0,0,0-2.73-3.27,8.88,8.88,0,0,0-4.31-.83,71.65,71.65,0,0,0-9.36,1.65,26.88,26.88,0,0,1-4.94.56,11.11,11.11,0,0,1-5-1,10.34,10.34,0,0,1-4-3.34,24.47,24.47,0,0,1-2.44-4.53c-1.35-3.16-2.25-6.46-3.48-9.64a22.61,22.61,0,0,0-2.25-4.51,8.19,8.19,0,0,0-3.7-3.08c-.39-.11-.77-.26-1.16-.35l-1.23-.11a4.38,4.38,0,0,0-2.28.46,9.58,9.58,0,0,0-3.41,3.56,43.7,43.7,0,0,0-4,9.8c-1,3.43-1.88,7-2.7,10.5-1.36,5.87-2.58,11.73-4.09,17.46a87.39,87.39,0,0,1-2.62,8.47,22.09,22.09,0,0,1-4.42,7.68,6.13,6.13,0,0,1-4.21,1.87,8.48,8.48,0,0,1-4.3-1.31,20.55,20.55,0,0,1-6.06-6.12c-3.22-4.67-5.3-9.86-7.3-14.83s-4.35-9.79-8.16-13.13a15.28,15.28,0,0,0-13.7-3.34,23.12,23.12,0,0,0-6.51,2.87,43.63,43.63,0,0,0-5.69,4.11,75.76,75.76,0,0,0-9.5,9.55l0,0h0a102.28,102.28,0,0,1-14.07,11.7,68.62,68.62,0,0,1-14.41,7.8c-4.81,1.78-9.64,2.84-14.1,2.35a49.48,49.48,0,0,1-11.75-2.84,109.65,109.65,0,0,1-15.27-7c-1.68-.92-3-1.67-3.8-2.18s-1.26-.82-1.26-.82.46.23,1.33.7l3.86,2.07a118.25,118.25,0,0,0,15.3,6.74,49.75,49.75,0,0,0,11.64,2.71c4.33.43,9.08-.63,13.8-2.41a68.56,68.56,0,0,0,14.21-7.8,102.91,102.91,0,0,0,13.89-11.65l0,0a76.38,76.38,0,0,1,9.59-9.72,44.92,44.92,0,0,1,5.79-4.21,23.8,23.8,0,0,1,6.78-3,16.26,16.26,0,0,1,14.6,3.52c4,3.53,6.39,8.55,8.46,13.49s4.07,10.09,7.22,14.63a19.5,19.5,0,0,0,5.72,5.79,7.41,7.41,0,0,0,3.76,1.16,5.09,5.09,0,0,0,3.43-1.57,21,21,0,0,0,4.16-7.28,86.16,86.16,0,0,0,2.58-8.36c1.5-5.69,2.71-11.55,4.08-17.43.82-3.56,1.68-7.1,2.71-10.57a44.33,44.33,0,0,1,4.08-10.06,10.49,10.49,0,0,1,3.86-4,5.56,5.56,0,0,1,2.82-.58l1.39.14c.45.1.9.27,1.35.4a9.34,9.34,0,0,1,4.2,3.49,23.59,23.59,0,0,1,2.37,4.74c1.24,3.24,2.14,6.54,3.45,9.6s3,6.08,5.88,7.33,6.22.89,9.32.35,6.27-1.48,9.53-1.65a9.92,9.92,0,0,1,4.83,1,7.68,7.68,0,0,1,3.14,3.73,50.2,50.2,0,0,1,2.59,8.83,39.48,39.48,0,0,0,2.66,8.3,9.58,9.58,0,0,0,5.81,5.42,12,12,0,0,0,7.79-.62,18.66,18.66,0,0,0,6.12-4.74c3.47-3.81,6.18-8.15,10-11.27a17.91,17.91,0,0,1,6.2-3.47,13.14,13.14,0,0,1,6.75-.2c4.37,1.09,7.52,4.12,10,7a52.34,52.34,0,0,1,5.69,9,22.49,22.49,0,0,0,5.26,7,24.17,24.17,0,0,0,10.84,5.37,25.66,25.66,0,0,0,3.14.53C1818.11,575.67,1818.48,575.68,1818.48,575.7Z"/><path class="cls-2" d="M1566.11,495.36c0,.31-16.54.56-36.93.56s-36.94-.25-36.94-.56,16.53-.56,36.94-.56S1566.11,495.05,1566.11,495.36Z"/><polygon class="cls-6" points="1872.47 464.18 1872.47 641.64 1893.95 641.64 1923.51 641.64 2061.31 641.64 2061.31 464.18 1872.47 464.18"/><path class="cls-2" d="M1966.05,484.29a58.27,58.27,0,1,0,58.27,58.27A58.26,58.26,0,0,0,1966.05,484.29Zm.88,93.18a35.79,35.79,0,1,1,35.79-35.79A35.8,35.8,0,0,1,1966.93,577.47Z"/><path class="cls-3" d="M1967,484.31c0,6.2,0,14.56,0,21.58a35.8,35.8,0,0,1,34.1,46.64l21.12,5.73A58.24,58.24,0,0,0,1967,484.31Z"/><path class="cls-4" d="M1931.14,541.68A35.79,35.79,0,0,1,1952.36,509l-9-20.13a58.28,58.28,0,0,0-35.6,53.7c0,.82,0,1.63.06,2.44h23.45C1931.2,543.91,1931.14,542.8,1931.14,541.68Z"/><path class="cls-3" d="M1966.93,577.47a35.61,35.61,0,0,1-7.57-.81c-.9,5.19-2.6,15.25-3.94,23.18a59.11,59.11,0,0,0,10.63,1,58.28,58.28,0,0,0,56.11-42.56L2001,552.53A35.79,35.79,0,0,1,1966.93,577.47Z"/><path d="M1966.93,577.47a35.61,35.61,0,0,1-7.57-.81c-.9,5.19-2.6,15.25-3.94,23.18a59.11,59.11,0,0,0,10.63,1,58.28,58.28,0,0,0,56.11-42.56L2001,552.53A35.79,35.79,0,0,1,1966.93,577.47Z"/><path class="cls-2" d="M1959.2,544.58H1957v2.78h-3v-2.78h-7.14v-2.07l6.25-8.4h3.21l-5.79,8h3.56V539.6H1957v2.48h2.16Z"/><path class="cls-2" d="M1960.11,540.73c0-4.36,2.42-6.84,5.67-6.84s5.67,2.48,5.67,6.84-2.4,6.85-5.67,6.85S1960.11,545.1,1960.11,540.73Zm8.26,0c0-3-1.06-4.25-2.59-4.25s-2.57,1.25-2.57,4.25,1.06,4.26,2.57,4.26S1968.37,543.74,1968.37,540.73Z"/><path class="cls-2" d="M1972.72,537.61c0-2.23,1.36-3.65,3.29-3.65s3.27,1.4,3.27,3.65-1.34,3.66-3.27,3.66S1972.72,539.85,1972.72,537.61Zm4.67,0c0-1.42-.55-2.1-1.38-2.1s-1.38.7-1.38,2.1.57,2.1,1.38,2.1S1977.39,539,1977.39,537.61Zm6.51-3.5h2.25l-9,13.25h-2.25Zm-2.18,9.75c0-2.24,1.37-3.65,3.28-3.65s3.29,1.41,3.29,3.65-1.36,3.65-3.29,3.65S1981.72,546.09,1981.72,543.86Zm4.66,0c0-1.4-.55-2.1-1.38-2.1s-1.39.68-1.39,2.1.57,2.1,1.39,2.1S1986.38,545.26,1986.38,543.86Z"/><path class="cls-2" d="M2014.27,615.52c0,.31-21.59.55-48.21.55s-48.22-.24-48.22-.55,21.58-.55,48.22-.55S2014.27,615.22,2014.27,615.52Z"/><path class="cls-2" d="M1992.79,624.38c0,.3-12,.55-26.74.55s-26.74-.25-26.74-.55,12-.56,26.74-.56S1992.79,624.07,1992.79,624.38Z"/><rect class="cls-11" x="1660.49" y="653.45" width="379.01" height="124.52"/><path class="cls-10" d="M2007.53,682.9c0,.22-64.41.4-143.84.4s-143.86-.18-143.86-.4,64.4-.4,143.86-.4S2007.53,682.68,2007.53,682.9Z"/><path class="cls-10" d="M2007.53,697.64c0,.22-64.41.4-143.84.4s-143.86-.18-143.86-.4,64.4-.41,143.86-.41S2007.53,697.41,2007.53,697.64Z"/><path class="cls-10" d="M2007.53,712.37c0,.22-64.41.4-143.84.4s-143.86-.18-143.86-.4,64.4-.4,143.86-.4S2007.53,712.15,2007.53,712.37Z"/><path class="cls-10" d="M2007.53,727.1c0,.22-64.41.4-143.84.4s-143.86-.18-143.86-.4,64.4-.4,143.86-.4S2007.53,726.88,2007.53,727.1Z"/><path class="cls-10" d="M2007.53,741.84c0,.22-64.41.4-143.84.4s-143.86-.18-143.86-.4,64.4-.4,143.86-.4S2007.53,741.61,2007.53,741.84Z"/><path class="cls-4" d="M1982.48,724.68s-.2.22-.62.65a8.23,8.23,0,0,1-2.42,1.33,12.87,12.87,0,0,1-10.5-1.68,17.37,17.37,0,0,1-5-5.4,80.79,80.79,0,0,1-3.76-7.51,23.41,23.41,0,0,0-5.63-7.84,12.87,12.87,0,0,0-4.89-2.58,14.74,14.74,0,0,0-6-.29,24.32,24.32,0,0,0-11.48,5.27c-3.43,2.68-6.44,6-10.13,9a24.64,24.64,0,0,1-13.9,5.92,14.28,14.28,0,0,1-8-1.83,17.55,17.55,0,0,1-5.54-5.54c-2.86-4.28-4.31-9.26-8-13.17a13.23,13.23,0,0,0-7-4.18,10.79,10.79,0,0,0-8.18,1.71,16.52,16.52,0,0,0-5.38,6.2,35.81,35.81,0,0,0-2.54,7.76,43.27,43.27,0,0,1-2.52,8,19.11,19.11,0,0,1-2.33,3.77,18.15,18.15,0,0,1-3.4,3.13,22.72,22.72,0,0,1-8.77,3.8,23.92,23.92,0,0,1-9.68.12,23.21,23.21,0,0,1-8.55-3.65c-2.53-1.63-4.82-3.44-7.22-5.07a22.84,22.84,0,0,0-7.77-3.67,12.75,12.75,0,0,0-8.32.94,18.69,18.69,0,0,0-6.21,5,46.79,46.79,0,0,0-4.2,6.38,48.79,48.79,0,0,1-4.15,6.32,18.56,18.56,0,0,1-6,4.91,13.63,13.63,0,0,1-7.79,1.58,11.74,11.74,0,0,1-6.77-3.27,16.2,16.2,0,0,1-3.73-5.62,37.66,37.66,0,0,1-1.7-6c-.83-3.95-1.64-7.8-4-10.86a14.06,14.06,0,0,0-9.25-6,11.86,11.86,0,0,0-5.33.57,14.76,14.76,0,0,0-4.27,2.45c-4.86,4-7.2,8.9-10.8,11.72-3.41,2.93-7.09,4.28-9.65,4.21a8.84,8.84,0,0,1-2.82-.44c-.59-.21-.89-.34-.89-.34a11.61,11.61,0,0,0,3.7.62c2.5,0,6.08-1.35,9.41-4.27,3.51-2.8,5.77-7.66,10.69-11.83a15.18,15.18,0,0,1,4.42-2.56,12.42,12.42,0,0,1,5.63-.63,14.67,14.67,0,0,1,9.71,6.16,17.9,17.9,0,0,1,2.69,5.23c.61,1.88,1,3.84,1.46,5.81a36.57,36.57,0,0,0,1.7,5.93,15.52,15.52,0,0,0,3.6,5.39,10.93,10.93,0,0,0,6.3,3,12.85,12.85,0,0,0,7.27-1.5,17.68,17.68,0,0,0,5.7-4.73,47.06,47.06,0,0,0,4.08-6.23,46.9,46.9,0,0,1,4.25-6.49,19.61,19.61,0,0,1,6.49-5.24,13.78,13.78,0,0,1,9-1,23.54,23.54,0,0,1,8.11,3.8c2.44,1.65,4.73,3.45,7.2,5a22.51,22.51,0,0,0,8.21,3.52,22.94,22.94,0,0,0,9.26-.13,21.84,21.84,0,0,0,8.4-3.63,18.15,18.15,0,0,0,3.24-3,17.91,17.91,0,0,0,2.22-3.6,42.77,42.77,0,0,0,2.48-7.92,35.61,35.61,0,0,1,2.61-7.91,17.2,17.2,0,0,1,5.66-6.51,11.8,11.8,0,0,1,8.93-1.83,14,14,0,0,1,7.46,4.45c3.85,4.08,5.3,9.13,8.08,13.28a16.7,16.7,0,0,0,5.27,5.31,13.39,13.39,0,0,0,7.44,1.73,23.86,23.86,0,0,0,13.42-5.71c3.64-2.93,6.67-6.23,10.17-9a25.11,25.11,0,0,1,11.85-5.37,15.51,15.51,0,0,1,6.31.33,13.58,13.58,0,0,1,5.11,2.74,23.76,23.76,0,0,1,5.7,8c1.28,2.72,2.34,5.29,3.67,7.5a17.17,17.17,0,0,0,4.78,5.34,12.66,12.66,0,0,0,10.21,1.76A7.94,7.94,0,0,0,1982.48,724.68Z"/><path class="cls-3" d="M2000.68,721.24s-.33,0-1,.06c-.33,0-.73-.09-1.22-.15a10.24,10.24,0,0,1-1.6-.5c-2.4-.89-5.38-3.06-8.57-6.26-.8-.8-1.62-1.66-2.45-2.59a29.22,29.22,0,0,0-2.66-2.84,15.09,15.09,0,0,0-8.47-3.35,12.68,12.68,0,0,0-9.77,3.26c-2.77,2.37-4.85,5.51-7.57,8.5a21.51,21.51,0,0,1-4.86,4.08,16.26,16.26,0,0,1-6.63,2.15c-4.86.5-9.87-.66-14.6-2.37s-9.34-4.08-14.47-5.6a30.42,30.42,0,0,0-8-1.39,19.54,19.54,0,0,0-8.06,1.53c-5.15,2.13-9.16,6-14,9.2a30.1,30.1,0,0,1-8.1,3.85,34.23,34.23,0,0,1-9.29,1.39,38.31,38.31,0,0,1-18.43-4.42,42.35,42.35,0,0,1-14-12.08c-3.75-4.87-5.81-10.39-8.51-15.44a31.49,31.49,0,0,0-5-7,21.58,21.58,0,0,0-7.29-4.88,14.82,14.82,0,0,0-8.79-.8,15,15,0,0,0-7.3,4.15,20.91,20.91,0,0,0-4.37,6.57,46.94,46.94,0,0,0-2.26,7.27c-.6,2.44-1.14,4.87-1.91,7.23a29.31,29.31,0,0,1-3.13,6.74,32.6,32.6,0,0,1-10.56,10.34,33.83,33.83,0,0,1-13.77,4.83,33.12,33.12,0,0,1-13.63-1.37c-8.34-2.6-14.22-8.22-16.42-14-1.13-2.86-1.71-5.62-2.53-8.08a17.6,17.6,0,0,0-3.27-6.32,12.4,12.4,0,0,0-9.5-4.22,7.93,7.93,0,0,0-3.61,1.14,6.49,6.49,0,0,1,3.59-1.3,12.6,12.6,0,0,1,9.8,4.19,17.91,17.91,0,0,1,3.42,6.4c.85,2.48,1.45,5.23,2.59,8,2.2,5.61,8,11.08,16.16,13.59a32.49,32.49,0,0,0,13.3,1.28,32.86,32.86,0,0,0,13.43-4.76,31.82,31.82,0,0,0,10.29-10.13c2.66-4.1,3.78-8.89,4.92-13.78a47,47,0,0,1,2.27-7.38,21.65,21.65,0,0,1,4.52-6.81,15.34,15.34,0,0,1,17.13-3.57,22.37,22.37,0,0,1,7.61,5.09,31.27,31.27,0,0,1,5.09,7.2c2.75,5.12,4.77,10.57,8.45,15.33a41.32,41.32,0,0,0,13.69,11.83,37.21,37.21,0,0,0,17.94,4.33,34.06,34.06,0,0,0,9-1.34,29.39,29.39,0,0,0,7.87-3.73c4.76-3.11,8.8-7,14.16-9.26a20.58,20.58,0,0,1,8.45-1.58,31.26,31.26,0,0,1,8.23,1.44c5.22,1.56,9.82,4,14.5,5.66s9.56,2.83,14.22,2.37a15.78,15.78,0,0,0,6.34-2,20.73,20.73,0,0,0,4.72-4c2.7-2.92,4.81-6.08,7.68-8.5a13.94,13.94,0,0,1,4.82-2.78,14.17,14.17,0,0,1,5.41-.56,15.51,15.51,0,0,1,8.73,3.52,31.77,31.77,0,0,1,2.67,2.9c.82.93,1.62,1.8,2.4,2.6,3.14,3.21,6,5.39,8.37,6.31A8.43,8.43,0,0,0,2000.68,721.24Z"/><path class="cls-7" d="M1700.08,683.63c0,.23-1.71.41-3.81.41s-3.8-.18-3.8-.41,1.7-.4,3.8-.4S1700.08,683.41,1700.08,683.63Z"/><path class="cls-7" d="M1700.08,697.64c0,.22-1.71.4-3.81.4s-3.8-.18-3.8-.4,1.7-.41,3.8-.41S1700.08,697.41,1700.08,697.64Z"/><path class="cls-7" d="M1700.08,711.64c0,.22-1.71.4-3.81.4s-3.8-.18-3.8-.4,1.7-.4,3.8-.4S1700.08,711.42,1700.08,711.64Z"/><path class="cls-7" d="M1700.08,725.64c0,.22-1.71.4-3.81.4s-3.8-.18-3.8-.4,1.7-.4,3.8-.4S1700.08,725.42,1700.08,725.64Z"/><path class="cls-7" d="M1700.08,739.64c0,.22-1.71.4-3.81.4s-3.8-.18-3.8-.4,1.7-.4,3.8-.4S1700.08,739.42,1700.08,739.64Z"/><path class="cls-7" d="M1735.05,757.64c0,.22-3.41.4-7.61.4s-7.61-.18-7.61-.4,3.41-.4,7.61-.4S1735.05,757.42,1735.05,757.64Z"/><path class="cls-7" d="M1802.13,757.64c0,.22-3.41.4-7.61.4s-7.61-.18-7.61-.4,3.41-.4,7.61-.4S1802.13,757.42,1802.13,757.64Z"/><path class="cls-7" d="M1869.21,757.64c0,.22-3.4.4-7.61.4s-7.6-.18-7.6-.4,3.4-.4,7.6-.4S1869.21,757.42,1869.21,757.64Z"/><path class="cls-7" d="M1936.3,757.64c0,.22-3.41.4-7.61.4s-7.61-.18-7.61-.4,3.4-.4,7.61-.4S1936.3,757.42,1936.3,757.64Z"/><path class="cls-7" d="M2003.38,757.64c0,.22-3.41.4-7.61.4s-7.61-.18-7.61-.4,3.41-.4,7.61-.4S2003.38,757.42,2003.38,757.64Z"/><text class="cls-12" transform="translate(23.06 73.31)">CENTRALISATION DU REPORTING POUR ANALYSE</text><text class="cls-13" transform="translate(324.27 192.59)">Reporting centralisé</text><text class="cls-13" transform="translate(387.33 277.38)">Automatisation</text><text class="cls-13" transform="translate(1157.11 192.59)">Business Intelligence</text><text class="cls-13" transform="translate(1234.04 277.84)">Compliance</text></g></g></svg>