<svg xmlns="http://www.w3.org/2000/svg" viewBox="0 0 2094.19 818.86"><defs><style>.cls-1{fill:#59595b;}.cls-2{fill:#1a2e35;}.cls-3{fill:#ff735d;}.cls-4{fill:#375a64;}.cls-5{fill:#a4a4a7;}.cls-6{fill:#f5f5f5;}.cls-7{fill:#e1e1e1;}.cls-8{fill:#2f3f51;}.cls-9{fill:#fff;}.cls-10{fill:#ececec;}.cls-11{fill:#fafafa;}.cls-12{font-size:86px;fill:#0369a1;font-family:Poppins-Bold, Poppins;font-weight:700;}</style></defs><g id="Layer_2" data-name="Layer 2"><g id="Layer_1-2" data-name="Layer 1"><path class="cls-1" d="M1129.51,543.94V533.35h2v10.59Zm12.64,0V533.35h21.17v10.59Zm31.76,0V533.35h21.18v10.59Zm31.77,0V533.35h328v10.59Z"/><rect class="cls-1" x="76.56" y="287.65" width="10.59" height="10.59"/><path class="cls-1" d="M97,298.24V287.65h19.66v10.59Zm29.49,0V287.65h19.67v10.59Z"/><polygon class="cls-1" points="155.98 298.24 155.98 287.65 171.86 287.65 171.86 303.54 161.27 303.54 161.27 298.24 155.98 298.24"/><path class="cls-1" d="M161.27,760.82V739h10.59v21.78Zm0-32.66V706.38h10.59v21.78Zm0-32.67V673.72h10.59v21.77Zm0-32.66V641.06h10.59v21.77Zm0-32.66V608.39h10.59v21.78Zm0-32.66V575.73h10.59v21.78Zm0-32.67V543.07h10.59v21.77Zm0-32.66V510.4h10.59v21.78Zm0-32.66V477.74h10.59v21.78Zm0-32.67V445.08h10.59v21.77Zm0-32.66V412.41h10.59v21.78Zm0-32.66V379.75h10.59v21.78Zm0-32.67V347.09h10.59v21.77Zm0-32.66V314.43h10.59V336.2Z"/><polygon class="cls-1" points="155.98 787.59 155.98 777 161.27 777 161.27 771.71 171.86 771.71 171.86 787.59 155.98 787.59"/><path class="cls-1" d="M103.45,787.59V777H121v10.59Zm26.26,0V777h17.51v10.59Z"/><rect class="cls-1" x="84.11" y="777" width="10.59" height="10.59"/><path class="cls-1" d="M69.21,464.5V453.91h2.05V464.5Zm12.64,0V453.91H103V464.5Zm31.77,0V453.91H134.8V464.5Zm31.77,0V453.91h21.18V464.5Z"/><path class="cls-1" d="M69.21,626.71V616.12h2.05v10.59Zm12.64,0V616.12H103v10.59Zm31.77,0V616.12H134.8v10.59Zm31.77,0V616.12h21.18v10.59Z"/><path class="cls-1" d="M165.1,545.6V535h2V545.6Zm12.63,0V535h21.18V545.6Zm31.77,0V535h21.18V545.6Zm31.77,0V535h328V545.6Z"/><rect class="cls-2" y="258.44" width="70.46" height="70.46"/><rect class="cls-3" y="423.97" width="70.46" height="70.46"/><rect class="cls-4" y="586.18" width="70.46" height="70.47"/><rect class="cls-5" y="748.4" width="70.46" height="70.46"/><rect class="cls-2" x="631.03" y="387.93" width="449.6" height="312.97"/><rect class="cls-4" x="569.25" y="480.77" width="462.49" height="114.74"/><rect class="cls-2" x="589.79" y="504.4" width="91.06" height="14.01"/><rect class="cls-2" x="589.79" y="528.51" width="91.06" height="14.01"/><rect class="cls-2" x="589.79" y="553.43" width="91.06" height="14.01"/><path class="cls-2" d="M716.86,512.87a5.23,5.23,0,1,1-5.22-5.23A5.22,5.22,0,0,1,716.86,512.87Z"/><path class="cls-2" d="M739.91,512.87a5.22,5.22,0,1,1-5.22-5.23A5.22,5.22,0,0,1,739.91,512.87Z"/><path class="cls-2" d="M763,512.87a5.22,5.22,0,1,1-5.22-5.23A5.22,5.22,0,0,1,763,512.87Z"/><path class="cls-2" d="M786,512.87a5.23,5.23,0,1,1-5.23-5.23A5.23,5.23,0,0,1,786,512.87Z"/><path class="cls-2" d="M964.65,512.87a5.23,5.23,0,1,1-5.22-5.23A5.22,5.22,0,0,1,964.65,512.87Z"/><path class="cls-2" d="M988.16,512.87a5.23,5.23,0,1,1-5.23-5.23A5.23,5.23,0,0,1,988.16,512.87Z"/><path class="cls-2" d="M809.07,512.87a5.23,5.23,0,1,1-5.23-5.23A5.23,5.23,0,0,1,809.07,512.87Z"/><path class="cls-2" d="M922.28,512.87a5.23,5.23,0,1,1-5.23-5.23A5.23,5.23,0,0,1,922.28,512.87Z"/><path class="cls-6" d="M832.12,512.87a5.23,5.23,0,1,1-5.22-5.23A5.22,5.22,0,0,1,832.12,512.87Z"/><path class="cls-6" d="M855.17,512.87a5.22,5.22,0,1,1-5.22-5.23A5.22,5.22,0,0,1,855.17,512.87Z"/><path class="cls-6" d="M901.94,512.87a5.23,5.23,0,1,1-5.22-5.23A5.22,5.22,0,0,1,901.94,512.87Z"/><path class="cls-6" d="M1007.28,512.87a5.22,5.22,0,1,1-5.22-5.23A5.22,5.22,0,0,1,1007.28,512.87Z"/><path class="cls-3" d="M878.22,512.87a5.22,5.22,0,1,1-5.22-5.23A5.22,5.22,0,0,1,878.22,512.87Z"/><path class="cls-3" d="M944.23,512.87a5.23,5.23,0,1,1-5.23-5.23A5.23,5.23,0,0,1,944.23,512.87Z"/><path class="cls-2" d="M996.84,538.05a5.22,5.22,0,1,1,5.22,5.22A5.22,5.22,0,0,1,996.84,538.05Z"/><path class="cls-2" d="M973.78,538.05a5.23,5.23,0,1,1,5.23,5.22A5.23,5.23,0,0,1,973.78,538.05Z"/><path class="cls-2" d="M950.73,538.05a5.23,5.23,0,1,1,5.23,5.22A5.23,5.23,0,0,1,950.73,538.05Z"/><path class="cls-2" d="M927.68,538.05a5.23,5.23,0,1,1,5.22,5.22A5.23,5.23,0,0,1,927.68,538.05Z"/><path class="cls-2" d="M749.05,538.05a5.22,5.22,0,1,1,5.22,5.22A5.23,5.23,0,0,1,749.05,538.05Z"/><path class="cls-2" d="M725.54,538.05a5.23,5.23,0,1,1,5.22,5.22A5.23,5.23,0,0,1,725.54,538.05Z"/><path class="cls-2" d="M904.63,538.05a5.22,5.22,0,1,1,5.22,5.22A5.23,5.23,0,0,1,904.63,538.05Z"/><path class="cls-2" d="M791.42,538.05a5.23,5.23,0,1,1,5.22,5.22A5.23,5.23,0,0,1,791.42,538.05Z"/><path class="cls-6" d="M881.58,538.05a5.22,5.22,0,1,1,5.22,5.22A5.22,5.22,0,0,1,881.58,538.05Z"/><path class="cls-6" d="M858.52,538.05a5.23,5.23,0,1,1,5.23,5.22A5.23,5.23,0,0,1,858.52,538.05Z"/><path class="cls-6" d="M811.75,538.05a5.23,5.23,0,1,1,5.23,5.22A5.23,5.23,0,0,1,811.75,538.05Z"/><path class="cls-6" d="M706.41,538.05a5.23,5.23,0,1,1,5.23,5.22A5.23,5.23,0,0,1,706.41,538.05Z"/><path class="cls-3" d="M835.47,538.05a5.23,5.23,0,1,1,5.22,5.22A5.23,5.23,0,0,1,835.47,538.05Z"/><path class="cls-3" d="M769.47,538.05a5.23,5.23,0,1,1,5.22,5.22A5.23,5.23,0,0,1,769.47,538.05Z"/><path class="cls-2" d="M716.86,560.44a5.23,5.23,0,1,1-5.22-5.22A5.22,5.22,0,0,1,716.86,560.44Z"/><circle class="cls-2" cx="734.69" cy="560.44" r="5.22"/><circle class="cls-2" cx="757.74" cy="560.44" r="5.22"/><circle class="cls-2" cx="780.79" cy="560.44" r="5.22"/><circle class="cls-2" cx="959.43" cy="560.44" r="5.22"/><circle class="cls-2" cx="982.93" cy="560.44" r="5.22"/><path class="cls-2" d="M809.07,560.44a5.23,5.23,0,1,1-5.23-5.22A5.23,5.23,0,0,1,809.07,560.44Z"/><path class="cls-2" d="M922.28,560.44a5.23,5.23,0,1,1-5.23-5.22A5.23,5.23,0,0,1,922.28,560.44Z"/><circle class="cls-6" cx="826.9" cy="560.44" r="5.22"/><path class="cls-6" d="M855.17,560.44a5.22,5.22,0,1,1-5.22-5.22A5.22,5.22,0,0,1,855.17,560.44Z"/><path class="cls-6" d="M901.94,560.44a5.23,5.23,0,1,1-5.22-5.22A5.22,5.22,0,0,1,901.94,560.44Z"/><path class="cls-6" d="M1007.28,560.44a5.22,5.22,0,1,1-5.22-5.22A5.22,5.22,0,0,1,1007.28,560.44Z"/><path class="cls-3" d="M878.22,560.44a5.22,5.22,0,1,1-5.22-5.22A5.22,5.22,0,0,1,878.22,560.44Z"/><circle class="cls-3" cx="939" cy="560.44" r="5.22"/><rect class="cls-4" x="569.25" y="622.36" width="462.49" height="114.74"/><path class="cls-2" d="M715.72,653.32a5.23,5.23,0,1,1-5.23-5.22A5.23,5.23,0,0,1,715.72,653.32Z"/><path class="cls-2" d="M738.77,653.32a5.23,5.23,0,1,1-5.23-5.22A5.23,5.23,0,0,1,738.77,653.32Z"/><path class="cls-2" d="M761.82,653.32a5.23,5.23,0,1,1-5.22-5.22A5.23,5.23,0,0,1,761.82,653.32Z"/><path class="cls-2" d="M784.87,653.32a5.23,5.23,0,1,1-5.22-5.22A5.23,5.23,0,0,1,784.87,653.32Z"/><path class="cls-2" d="M963.5,653.32a5.22,5.22,0,1,1-5.22-5.22A5.22,5.22,0,0,1,963.5,653.32Z"/><path class="cls-2" d="M987,653.32a5.23,5.23,0,1,1-5.22-5.22A5.23,5.23,0,0,1,987,653.32Z"/><path class="cls-2" d="M807.92,653.32a5.22,5.22,0,1,1-5.22-5.22A5.23,5.23,0,0,1,807.92,653.32Z"/><path class="cls-2" d="M921.13,653.32a5.23,5.23,0,1,1-5.22-5.22A5.23,5.23,0,0,1,921.13,653.32Z"/><path class="cls-6" d="M831,653.32a5.23,5.23,0,1,1-5.23-5.22A5.23,5.23,0,0,1,831,653.32Z"/><path class="cls-6" d="M854,653.32a5.23,5.23,0,1,1-5.23-5.22A5.23,5.23,0,0,1,854,653.32Z"/><path class="cls-6" d="M900.8,653.32a5.23,5.23,0,1,1-5.23-5.22A5.23,5.23,0,0,1,900.8,653.32Z"/><path class="cls-6" d="M1006.14,653.32a5.23,5.23,0,1,1-5.23-5.22A5.23,5.23,0,0,1,1006.14,653.32Z"/><path class="cls-3" d="M877.08,653.32a5.23,5.23,0,1,1-5.22-5.22A5.23,5.23,0,0,1,877.08,653.32Z"/><path class="cls-3" d="M943.08,653.32a5.23,5.23,0,1,1-5.22-5.22A5.23,5.23,0,0,1,943.08,653.32Z"/><path class="cls-2" d="M995.69,678.5a5.23,5.23,0,1,1,5.22,5.23A5.22,5.22,0,0,1,995.69,678.5Z"/><circle class="cls-2" cx="977.86" cy="678.5" r="5.22"/><path class="cls-2" d="M949.59,678.5a5.22,5.22,0,1,1,5.22,5.23A5.22,5.22,0,0,1,949.59,678.5Z"/><path class="cls-2" d="M926.53,678.5a5.23,5.23,0,1,1,5.23,5.23A5.23,5.23,0,0,1,926.53,678.5Z"/><path class="cls-2" d="M747.9,678.5a5.23,5.23,0,1,1,5.22,5.23A5.22,5.22,0,0,1,747.9,678.5Z"/><path class="cls-2" d="M724.39,678.5a5.23,5.23,0,1,1,5.23,5.23A5.23,5.23,0,0,1,724.39,678.5Z"/><circle class="cls-2" cx="908.71" cy="678.5" r="5.22"/><circle class="cls-2" cx="795.5" cy="678.5" r="5.22"/><path class="cls-6" d="M880.43,678.5a5.23,5.23,0,1,1,5.22,5.23A5.22,5.22,0,0,1,880.43,678.5Z"/><path class="cls-6" d="M857.38,678.5a5.23,5.23,0,1,1,5.22,5.23A5.22,5.22,0,0,1,857.38,678.5Z"/><circle class="cls-6" cx="815.83" cy="678.5" r="5.22"/><path class="cls-6" d="M705.27,678.5a5.23,5.23,0,1,1,5.22,5.23A5.22,5.22,0,0,1,705.27,678.5Z"/><path class="cls-3" d="M834.33,678.5a5.22,5.22,0,1,1,5.22,5.23A5.22,5.22,0,0,1,834.33,678.5Z"/><path class="cls-3" d="M768.32,678.5a5.23,5.23,0,1,1,5.23,5.23A5.23,5.23,0,0,1,768.32,678.5Z"/><path class="cls-2" d="M715.72,700.9a5.23,5.23,0,1,1-5.23-5.23A5.23,5.23,0,0,1,715.72,700.9Z"/><path class="cls-2" d="M738.77,700.9a5.23,5.23,0,1,1-5.23-5.23A5.23,5.23,0,0,1,738.77,700.9Z"/><path class="cls-2" d="M761.82,700.9a5.23,5.23,0,1,1-5.22-5.23A5.22,5.22,0,0,1,761.82,700.9Z"/><path class="cls-2" d="M784.87,700.9a5.23,5.23,0,1,1-5.22-5.23A5.22,5.22,0,0,1,784.87,700.9Z"/><path class="cls-2" d="M963.5,700.9a5.22,5.22,0,1,1-5.22-5.23A5.22,5.22,0,0,1,963.5,700.9Z"/><path class="cls-2" d="M987,700.9a5.23,5.23,0,1,1-5.22-5.23A5.22,5.22,0,0,1,987,700.9Z"/><path class="cls-2" d="M807.92,700.9a5.22,5.22,0,1,1-5.22-5.23A5.22,5.22,0,0,1,807.92,700.9Z"/><path class="cls-2" d="M921.13,700.9a5.23,5.23,0,1,1-5.22-5.23A5.22,5.22,0,0,1,921.13,700.9Z"/><path class="cls-6" d="M831,700.9a5.23,5.23,0,1,1-5.23-5.23A5.23,5.23,0,0,1,831,700.9Z"/><path class="cls-6" d="M854,700.9a5.23,5.23,0,1,1-5.23-5.23A5.23,5.23,0,0,1,854,700.9Z"/><path class="cls-6" d="M900.8,700.9a5.23,5.23,0,1,1-5.23-5.23A5.23,5.23,0,0,1,900.8,700.9Z"/><path class="cls-6" d="M1006.14,700.9a5.23,5.23,0,1,1-5.23-5.23A5.23,5.23,0,0,1,1006.14,700.9Z"/><path class="cls-3" d="M877.08,700.9a5.23,5.23,0,1,1-5.22-5.23A5.22,5.22,0,0,1,877.08,700.9Z"/><path class="cls-3" d="M943.08,700.9a5.23,5.23,0,1,1-5.22-5.23A5.22,5.22,0,0,1,943.08,700.9Z"/><rect class="cls-2" x="589.79" y="646" width="91.06" height="14.01"/><rect class="cls-2" x="589.79" y="670.1" width="91.06" height="14.01"/><rect class="cls-2" x="589.79" y="695.03" width="91.06" height="14.01"/><polygon class="cls-2" points="1129.51 595.32 1031.74 595.51 1031.74 480.77 1129.51 480.58 1129.51 595.32"/><polygon class="cls-2" points="1129.51 736.03 1031.74 736.21 1031.74 621.47 1129.51 621.28 1129.51 736.03"/><rect class="cls-2" x="593.14" y="412.86" width="91.06" height="14.01"/><polygon class="cls-2" points="1129.51 455.81 1031.74 456 1031.74 340.38 1129.51 340.19 1129.51 455.81"/><rect class="cls-4" x="572.6" y="340.19" width="462.49" height="114.74"/><rect class="cls-2" x="593.14" y="363.82" width="91.06" height="14.01"/><rect class="cls-2" x="593.14" y="387.93" width="91.06" height="14.01"/><path class="cls-2" d="M720.21,372.29a5.23,5.23,0,1,1-5.22-5.23A5.22,5.22,0,0,1,720.21,372.29Z"/><path class="cls-2" d="M743.26,372.29a5.23,5.23,0,1,1-5.22-5.23A5.22,5.22,0,0,1,743.26,372.29Z"/><path class="cls-2" d="M766.31,372.29a5.22,5.22,0,1,1-5.22-5.23A5.22,5.22,0,0,1,766.31,372.29Z"/><path class="cls-2" d="M789.37,372.29a5.23,5.23,0,1,1-5.23-5.23A5.23,5.23,0,0,1,789.37,372.29Z"/><path class="cls-2" d="M968,372.29a5.23,5.23,0,1,1-5.23-5.23A5.23,5.23,0,0,1,968,372.29Z"/><path class="cls-2" d="M991.51,372.29a5.23,5.23,0,1,1-5.23-5.23A5.23,5.23,0,0,1,991.51,372.29Z"/><path class="cls-2" d="M812.42,372.29a5.23,5.23,0,1,1-5.23-5.23A5.23,5.23,0,0,1,812.42,372.29Z"/><path class="cls-2" d="M925.63,372.29a5.23,5.23,0,1,1-5.23-5.23A5.23,5.23,0,0,1,925.63,372.29Z"/><path class="cls-6" d="M835.47,372.29a5.23,5.23,0,1,1-5.22-5.23A5.22,5.22,0,0,1,835.47,372.29Z"/><path class="cls-6" d="M858.52,372.29a5.23,5.23,0,1,1-5.22-5.23A5.22,5.22,0,0,1,858.52,372.29Z"/><path class="cls-6" d="M905.29,372.29a5.23,5.23,0,1,1-5.22-5.23A5.22,5.22,0,0,1,905.29,372.29Z"/><path class="cls-6" d="M1010.63,372.29a5.23,5.23,0,1,1-5.22-5.23A5.22,5.22,0,0,1,1010.63,372.29Z"/><path class="cls-3" d="M881.57,372.29a5.22,5.22,0,1,1-5.22-5.23A5.22,5.22,0,0,1,881.57,372.29Z"/><path class="cls-3" d="M947.58,372.29a5.23,5.23,0,1,1-5.23-5.23A5.23,5.23,0,0,1,947.58,372.29Z"/><path class="cls-2" d="M1000.18,397.47a5.23,5.23,0,1,1,5.23,5.22A5.23,5.23,0,0,1,1000.18,397.47Z"/><circle class="cls-2" cx="982.36" cy="397.47" r="5.22"/><path class="cls-2" d="M954.08,397.47a5.23,5.23,0,1,1,5.22,5.22A5.23,5.23,0,0,1,954.08,397.47Z"/><path class="cls-2" d="M931,397.47a5.23,5.23,0,1,1,5.22,5.22A5.23,5.23,0,0,1,931,397.47Z"/><path class="cls-2" d="M752.4,397.47a5.22,5.22,0,1,1,5.22,5.22A5.22,5.22,0,0,1,752.4,397.47Z"/><path class="cls-2" d="M728.89,397.47a5.23,5.23,0,1,1,5.22,5.22A5.23,5.23,0,0,1,728.89,397.47Z"/><path class="cls-2" d="M908,397.47a5.22,5.22,0,1,1,5.22,5.22A5.22,5.22,0,0,1,908,397.47Z"/><circle class="cls-2" cx="799.99" cy="397.47" r="5.22"/><path class="cls-6" d="M884.92,397.47a5.23,5.23,0,1,1,5.23,5.22A5.23,5.23,0,0,1,884.92,397.47Z"/><circle class="cls-6" cx="867.1" cy="397.47" r="5.22"/><path class="cls-6" d="M815.1,397.47a5.23,5.23,0,1,1,5.23,5.22A5.23,5.23,0,0,1,815.1,397.47Z"/><circle class="cls-6" cx="714.99" cy="397.47" r="5.22"/><path class="cls-3" d="M838.82,397.47a5.23,5.23,0,1,1,5.22,5.22A5.23,5.23,0,0,1,838.82,397.47Z"/><path class="cls-3" d="M772.82,397.47a5.23,5.23,0,1,1,5.22,5.22A5.23,5.23,0,0,1,772.82,397.47Z"/><path class="cls-2" d="M720.21,419.86a5.23,5.23,0,1,1-5.22-5.22A5.23,5.23,0,0,1,720.21,419.86Z"/><path class="cls-2" d="M743.26,419.86a5.23,5.23,0,1,1-5.22-5.22A5.23,5.23,0,0,1,743.26,419.86Z"/><path class="cls-2" d="M766.31,419.86a5.22,5.22,0,1,1-5.22-5.22A5.23,5.23,0,0,1,766.31,419.86Z"/><path class="cls-2" d="M789.37,419.86a5.23,5.23,0,1,1-5.23-5.22A5.23,5.23,0,0,1,789.37,419.86Z"/><path class="cls-2" d="M968,419.86a5.23,5.23,0,1,1-5.23-5.22A5.23,5.23,0,0,1,968,419.86Z"/><path class="cls-2" d="M991.51,419.86a5.23,5.23,0,1,1-5.23-5.22A5.23,5.23,0,0,1,991.51,419.86Z"/><path class="cls-2" d="M812.42,419.86a5.23,5.23,0,1,1-5.23-5.22A5.23,5.23,0,0,1,812.42,419.86Z"/><path class="cls-2" d="M925.63,419.86a5.23,5.23,0,1,1-5.23-5.22A5.23,5.23,0,0,1,925.63,419.86Z"/><path class="cls-6" d="M835.47,419.86a5.23,5.23,0,1,1-5.22-5.22A5.23,5.23,0,0,1,835.47,419.86Z"/><path class="cls-6" d="M858.52,419.86a5.23,5.23,0,1,1-5.22-5.22A5.23,5.23,0,0,1,858.52,419.86Z"/><path class="cls-6" d="M905.29,419.86a5.23,5.23,0,1,1-5.22-5.22A5.23,5.23,0,0,1,905.29,419.86Z"/><path class="cls-6" d="M1010.63,419.86a5.23,5.23,0,1,1-5.22-5.22A5.23,5.23,0,0,1,1010.63,419.86Z"/><path class="cls-3" d="M881.57,419.86a5.22,5.22,0,1,1-5.22-5.22A5.23,5.23,0,0,1,881.57,419.86Z"/><path class="cls-3" d="M947.58,419.86a5.23,5.23,0,1,1-5.23-5.22A5.23,5.23,0,0,1,947.58,419.86Z"/><path class="cls-7" d="M1439.12,538.65a4.85,4.85,0,1,1-4.85-4.85A4.85,4.85,0,0,1,1439.12,538.65Z"/><path class="cls-7" d="M1453.56,538.65a4.85,4.85,0,1,1-4.84-4.85A4.84,4.84,0,0,1,1453.56,538.65Z"/><path class="cls-4" d="M2074.59,261.32H1446.65a19.6,19.6,0,0,0-19.6,19.6V724.44a19.6,19.6,0,0,0,19.6,19.6h241S1703,791.45,1655.46,816h225.35S1827.15,797.58,1841,744h233.64a19.6,19.6,0,0,0,19.6-19.6V280.92A19.6,19.6,0,0,0,2074.59,261.32Z"/><path class="cls-8" d="M1769,697.4c8.54,12.21-4.83,25.58-17,17a4.4,4.4,0,0,1-1-1.06c-8.52-12.2,4.83-25.55,17-17A4.4,4.4,0,0,1,1769,697.4Z"/><path class="cls-9" d="M1465.55,269.44h590.15a27.68,27.68,0,0,1,27.68,27.68V662.91a0,0,0,0,1,0,0H1437.86a0,0,0,0,1,0,0V297.13A27.68,27.68,0,0,1,1465.55,269.44Z"/><path class="cls-10" d="M1464,269.44h597.92a21.46,21.46,0,0,1,21.46,21.46v11.24a0,0,0,0,1,0,0H1437.86a0,0,0,0,1,0,0v-6.56A26.13,26.13,0,0,1,1464,269.44Z"/><path class="cls-7" d="M1489.33,286.48a4.54,4.54,0,1,1-4.54-4.54A4.53,4.53,0,0,1,1489.33,286.48Z"/><path class="cls-8" d="M1962.32,744.11c0,.21-89.35.37-199.55.37s-199.58-.16-199.58-.37,89.34-.38,199.58-.38S1962.32,743.9,1962.32,744.11Z"/><polygon class="cls-6" points="1645.83 525.01 1465.82 525.53 1466.17 649.12 1615.4 648.69 1635.64 648.63 1646.19 648.6 1645.83 525.01"/><path class="cls-2" d="M1479.67,635.87c-.22,0-.45-21-.53-46.83s0-46.82.26-46.83.45,21,.53,46.83S1479.89,635.87,1479.67,635.87Z"/><path class="cls-10" d="M1635.85,622.52c0,.22-35.11.49-78.4.62s-78.42.05-78.42-.17,35.1-.49,78.41-.62S1635.85,622.3,1635.85,622.52Z"/><path class="cls-10" d="M1635.81,608.78c0,.22-35.1.49-78.4.62s-78.42.05-78.42-.17,35.1-.49,78.42-.62S1635.81,608.56,1635.81,608.78Z"/><path class="cls-10" d="M1635.77,595c0,.22-35.1.49-78.4.62s-78.42.05-78.42-.17,35.1-.49,78.42-.62S1635.77,594.82,1635.77,595Z"/><path class="cls-10" d="M1635.73,581.3c0,.22-35.1.49-78.4.62s-78.42.05-78.42-.17,35.1-.49,78.42-.62S1635.73,581.08,1635.73,581.3Z"/><path class="cls-10" d="M1635.69,567.56c0,.22-35.1.49-78.4.62s-78.41.05-78.42-.17,35.1-.49,78.42-.62S1635.69,567.34,1635.69,567.56Z"/><path class="cls-10" d="M1635.65,553.82c0,.22-35.1.49-78.4.62s-78.41,0-78.42-.17,35.1-.49,78.42-.62S1635.65,553.6,1635.65,553.82Z"/><path class="cls-10" d="M1635.61,540.08c0,.22-35.1.49-78.4.62s-78.41,0-78.41-.17,35.09-.49,78.41-.62S1635.61,539.86,1635.61,540.08Z"/><rect class="cls-3" x="1489.65" y="614.41" width="11.24" height="21.41" transform="translate(-1.79 4.31) rotate(-0.16)"/><rect class="cls-3" x="1571.32" y="614.17" width="11.24" height="21.41" transform="translate(-1.78 4.52) rotate(-0.16)"/><rect class="cls-3" x="1511.68" y="598.6" width="11.24" height="37.16" transform="translate(-1.78 4.4) rotate(-0.17)"/><rect class="cls-3" x="1552.87" y="588.81" width="11.24" height="46.83" transform="translate(-1.76 4.49) rotate(-0.16)"/><rect class="cls-3" x="1532.49" y="560.42" width="11.24" height="75.28" transform="translate(-1.72 4.46) rotate(-0.17)"/><rect class="cls-3" x="1593.05" y="574.17" width="11.24" height="61.35" transform="translate(-1.73 4.6) rotate(-0.16)"/><path class="cls-2" d="M1617.79,635.47c0,.22-30.86.48-68.92.59s-68.92,0-68.92-.19,30.85-.49,68.92-.6S1617.78,635.25,1617.79,635.47Z"/><polygon class="cls-6" points="1464.18 331.43 1464.18 512.94 1755.56 512.94 1781.12 512.94 1856.81 512.94 1856.81 331.43 1464.18 331.43"/><path class="cls-2" d="M1491.8,456.81v5.73h-.59v-5.21h-1.35v-.52Z"/><path class="cls-2" d="M1493.18,459.67c0-1.82,1-2.91,2.28-2.91s2.29,1.09,2.29,2.91-1,2.92-2.29,2.92S1493.18,461.5,1493.18,459.67Zm4,0c0-1.53-.69-2.37-1.69-2.37s-1.69.84-1.69,2.37.69,2.38,1.69,2.38S1497.15,461.2,1497.15,459.67Z"/><path class="cls-2" d="M1494.13,426.39v.52h-4v-.42l2.38-2.33c.65-.64.77-1,.77-1.42,0-.66-.47-1.07-1.34-1.07a1.93,1.93,0,0,0-1.57.64l-.41-.36a2.54,2.54,0,0,1,2-.82c1.17,0,1.9.59,1.9,1.55a2.36,2.36,0,0,1-.94,1.79l-1.94,1.92Z"/><path class="cls-2" d="M1494.84,424c0-1.82,1-2.91,2.28-2.91s2.29,1.09,2.29,2.91-1,2.92-2.29,2.92S1494.84,425.87,1494.84,424Zm4,0c0-1.53-.69-2.37-1.69-2.37s-1.68.84-1.68,2.37.69,2.38,1.68,2.38S1498.81,425.57,1498.81,424Z"/><path class="cls-2" d="M1494,389.63c0,1-.69,1.7-2.07,1.7a3,3,0,0,1-2.07-.74l.29-.47a2.49,2.49,0,0,0,1.78.67c.94,0,1.47-.45,1.47-1.16s-.49-1.14-1.55-1.14h-.41v-.43l1.59-2h-2.93v-.52h3.68V386l-1.62,2C1493.39,388.07,1494,388.71,1494,389.63Z"/><path class="cls-2" d="M1494.84,388.41c0-1.82,1-2.91,2.28-2.91s2.29,1.09,2.29,2.91-1,2.92-2.29,2.92S1494.84,390.24,1494.84,388.41Zm4,0c0-1.53-.69-2.37-1.69-2.37s-1.68.84-1.68,2.37.69,2.38,1.68,2.38S1498.81,389.94,1498.81,388.41Z"/><path class="cls-2" d="M1517.1,478.48c0-1.83,1-2.92,2.28-2.92s2.3,1.09,2.3,2.92-1,2.91-2.3,2.91S1517.1,480.3,1517.1,478.48Zm4,0c0-1.54-.69-2.38-1.69-2.38s-1.68.84-1.68,2.38.69,2.37,1.68,2.37S1521.07,480,1521.07,478.48Z"/><path class="cls-2" d="M1559.52,475.61v5.73h-.6v-5.21h-1.35v-.52Z"/><path class="cls-2" d="M1604.22,480.82v.52h-4v-.42l2.39-2.33c.64-.64.77-1,.77-1.42,0-.66-.47-1.07-1.35-1.07a2,2,0,0,0-1.56.64l-.42-.36a2.59,2.59,0,0,1,2-.82c1.16,0,1.9.59,1.9,1.55a2.34,2.34,0,0,1-.94,1.79l-2,1.92Z"/><path class="cls-2" d="M1646.48,479.69c0,1-.69,1.7-2.07,1.7a3,3,0,0,1-2.07-.74l.29-.46a2.53,2.53,0,0,0,1.78.66c.95,0,1.47-.44,1.47-1.16s-.49-1.13-1.55-1.13h-.41v-.44l1.59-2h-2.93v-.52h3.68V476l-1.62,2C1645.87,478.13,1646.48,478.78,1646.48,479.69Z"/><path class="cls-2" d="M1690,479.83h-1.15v1.51h-.59v-1.51H1685v-.42l3-3.8h.65l-2.93,3.7h2.49V478h.57v1.33H1690Z"/><path class="cls-2" d="M1731.35,479.65c0,1-.68,1.74-2.08,1.74a3,3,0,0,1-2.06-.74l.29-.46a2.5,2.5,0,0,0,1.76.66c1,0,1.49-.48,1.49-1.17s-.46-1.2-1.91-1.2h-1.23l.3-2.87h3.14v.52h-2.62l-.2,1.83h.74C1730.69,478,1731.35,478.64,1731.35,479.65Z"/><path class="cls-2" d="M1774.15,479.63a1.79,1.79,0,0,1-2,1.76c-1.52,0-2.35-1.06-2.35-2.87s1.07-3,2.62-3a2.63,2.63,0,0,1,1.36.31l-.24.48a2,2,0,0,0-1.11-.27c-1.24,0-2,.79-2,2.35,0,.13,0,.29,0,.46a1.84,1.84,0,0,1,1.76-1A1.74,1.74,0,0,1,1774.15,479.63Zm-.58,0c0-.76-.56-1.24-1.44-1.24a1.33,1.33,0,0,0-1.48,1.25c0,.63.53,1.23,1.52,1.23A1.26,1.26,0,0,0,1773.57,479.65Z"/><path class="cls-2" d="M1816.27,475.61V476l-2.4,5.31h-.64l2.36-5.21h-2.95v1.08h-.58v-1.6Z"/><path class="cls-2" d="M1816.58,460c0,.31-66.33.56-148.14.56s-148.14-.25-148.14-.56,66.31-.56,148.14-.56S1816.58,459.64,1816.58,460Z"/><path class="cls-2" d="M1816.58,424.14c0,.3-66.33.55-148.14.55s-148.14-.25-148.14-.55,66.31-.56,148.14-.56S1816.58,423.83,1816.58,424.14Z"/><path class="cls-2" d="M1816.58,388.32c0,.31-66.33.56-148.14.56s-148.14-.25-148.14-.56,66.31-.56,148.14-.56S1816.58,388,1816.58,388.32Z"/><path class="cls-3" d="M1520.3,459.43a1.91,1.91,0,1,1-1.91-1.91A1.9,1.9,0,0,1,1520.3,459.43Z"/><path class="cls-3" d="M1562.89,459.43a1.9,1.9,0,1,1-1.9-1.91A1.9,1.9,0,0,1,1562.89,459.43Z"/><path class="cls-3" d="M1605.49,459.43a1.9,1.9,0,1,1-1.9-1.91A1.9,1.9,0,0,1,1605.49,459.43Z"/><path class="cls-3" d="M1648.09,459.43a1.91,1.91,0,1,1-1.9-1.91A1.9,1.9,0,0,1,1648.09,459.43Z"/><path class="cls-3" d="M1690.69,459.43a1.91,1.91,0,1,1-1.91-1.91A1.9,1.9,0,0,1,1690.69,459.43Z"/><path class="cls-3" d="M1775.88,459.43a1.9,1.9,0,1,1-1.9-1.91A1.9,1.9,0,0,1,1775.88,459.43Z"/><path class="cls-3" d="M1733.28,459.43a1.9,1.9,0,1,1-1.9-1.91A1.9,1.9,0,0,1,1733.28,459.43Z"/><path class="cls-3" d="M1818.48,459.43a1.91,1.91,0,1,1-1.9-1.91A1.9,1.9,0,0,1,1818.48,459.43Z"/><path class="cls-7" d="M1539.71,460a1.25,1.25,0,1,1-1.25-1.25A1.25,1.25,0,0,1,1539.71,460Z"/><path class="cls-7" d="M1582.47,460a1.25,1.25,0,1,1-1.25-1.25A1.25,1.25,0,0,1,1582.47,460Z"/><path class="cls-7" d="M1625.22,460a1.25,1.25,0,1,1-1.24-1.25A1.24,1.24,0,0,1,1625.22,460Z"/><path class="cls-7" d="M1668,460a1.25,1.25,0,1,1-1.25-1.25A1.25,1.25,0,0,1,1668,460Z"/><path class="cls-7" d="M1710.74,460a1.25,1.25,0,1,1-1.25-1.25A1.25,1.25,0,0,1,1710.74,460Z"/><path class="cls-7" d="M1753.5,460a1.25,1.25,0,1,1-1.25-1.25A1.25,1.25,0,0,1,1753.5,460Z"/><path class="cls-7" d="M1796.26,460a1.25,1.25,0,1,1-1.25-1.25A1.25,1.25,0,0,1,1796.26,460Z"/><path class="cls-3" d="M1565.66,444.12a4.67,4.67,0,1,1-4.67-4.67A4.67,4.67,0,0,1,1565.66,444.12Z"/><path class="cls-3" d="M1602.82,422.19a4.67,4.67,0,1,1-4.66-4.67A4.66,4.66,0,0,1,1602.82,422.19Z"/><path class="cls-3" d="M1649,424.14a4.67,4.67,0,1,1-4.67-4.67A4.67,4.67,0,0,1,1649,424.14Z"/><path class="cls-3" d="M1694,384.27a4.67,4.67,0,1,1-4.66-4.67A4.66,4.66,0,0,1,1694,384.27Z"/><path class="cls-3" d="M1736.05,409.62a4.67,4.67,0,1,1-4.67-4.66A4.67,4.67,0,0,1,1736.05,409.62Z"/><path class="cls-3" d="M1778.65,416.38a4.67,4.67,0,1,1-4.67-4.67A4.67,4.67,0,0,1,1778.65,416.38Z"/><path class="cls-3" d="M1818.48,444.12a7.6,7.6,0,0,1-1.1,0,22.6,22.6,0,0,1-3.18-.43,24.1,24.1,0,0,1-11.08-5.26,23.1,23.1,0,0,1-5.44-7.08,52.38,52.38,0,0,0-5.7-8.83c-2.41-2.83-5.51-5.73-9.63-6.72a12.34,12.34,0,0,0-6.37.23,17,17,0,0,0-5.91,3.35c-3.63,3-6.3,7.34-9.83,11.25a19.48,19.48,0,0,1-6.39,5,12.94,12.94,0,0,1-8.41.69,10.51,10.51,0,0,1-6.4-5.88,40.34,40.34,0,0,1-2.77-8.51,49.15,49.15,0,0,0-2.53-8.63A6.85,6.85,0,0,0,1731,410a8.88,8.88,0,0,0-4.31-.83,71.65,71.65,0,0,0-9.36,1.65,26.88,26.88,0,0,1-4.94.56,11.11,11.11,0,0,1-5-1,10.34,10.34,0,0,1-4-3.34,24.47,24.47,0,0,1-2.44-4.53c-1.35-3.16-2.25-6.46-3.48-9.64a22.61,22.61,0,0,0-2.25-4.51,8.19,8.19,0,0,0-3.7-3.08c-.39-.11-.77-.26-1.16-.35l-1.23-.12a4.48,4.48,0,0,0-2.28.47,9.58,9.58,0,0,0-3.41,3.56,43.7,43.7,0,0,0-4,9.8c-1,3.43-1.88,6.95-2.7,10.5-1.36,5.87-2.58,11.73-4.09,17.46a87.39,87.39,0,0,1-2.62,8.47,22.09,22.09,0,0,1-4.42,7.68,6.13,6.13,0,0,1-4.21,1.87,8.48,8.48,0,0,1-4.3-1.31,20.55,20.55,0,0,1-6.06-6.12c-3.22-4.67-5.3-9.86-7.3-14.83s-4.35-9.79-8.16-13.13a15.28,15.28,0,0,0-13.7-3.34,23.12,23.12,0,0,0-6.51,2.87,43.63,43.63,0,0,0-5.69,4.11,75.76,75.76,0,0,0-9.5,9.55l0,0h0a101.47,101.47,0,0,1-14.07,11.69,68.22,68.22,0,0,1-14.41,7.81c-4.81,1.78-9.64,2.84-14.1,2.35a49.48,49.48,0,0,1-11.75-2.84,109.65,109.65,0,0,1-15.27-7c-1.68-.92-3-1.67-3.8-2.18s-1.26-.82-1.26-.82.46.23,1.33.7l3.86,2.07A118.25,118.25,0,0,0,1546,441a49.75,49.75,0,0,0,11.64,2.71c4.33.43,9.08-.63,13.8-2.41a68.16,68.16,0,0,0,14.21-7.81,102.08,102.08,0,0,0,13.89-11.64l0,0a76.38,76.38,0,0,1,9.59-9.72,44.92,44.92,0,0,1,5.79-4.21,23.8,23.8,0,0,1,6.78-3,16.26,16.26,0,0,1,14.6,3.52c4,3.53,6.39,8.55,8.46,13.49s4.07,10.08,7.22,14.63a19.5,19.5,0,0,0,5.72,5.79,7.4,7.4,0,0,0,3.76,1.15,5,5,0,0,0,3.43-1.56,21,21,0,0,0,4.16-7.28,86.16,86.16,0,0,0,2.58-8.36c1.5-5.69,2.71-11.55,4.08-17.43.82-3.56,1.68-7.1,2.71-10.57a44.33,44.33,0,0,1,4.08-10.06,10.49,10.49,0,0,1,3.86-4,5.56,5.56,0,0,1,2.82-.58l1.39.14c.45.1.9.27,1.35.4a9.34,9.34,0,0,1,4.2,3.49,23.59,23.59,0,0,1,2.37,4.74c1.24,3.24,2.14,6.54,3.45,9.6s3,6.08,5.88,7.33,6.22.89,9.32.35,6.27-1.48,9.53-1.65a9.92,9.92,0,0,1,4.83,1,7.68,7.68,0,0,1,3.14,3.73,50.2,50.2,0,0,1,2.59,8.83,39.48,39.48,0,0,0,2.66,8.3,9.58,9.58,0,0,0,5.81,5.42,12,12,0,0,0,7.79-.62,18.66,18.66,0,0,0,6.12-4.74c3.47-3.81,6.18-8.15,10-11.28a18.05,18.05,0,0,1,6.2-3.46,13.14,13.14,0,0,1,6.75-.2c4.37,1.09,7.52,4.12,10,7a52.34,52.34,0,0,1,5.69,9,22.49,22.49,0,0,0,5.26,7,24.28,24.28,0,0,0,10.84,5.37,25.66,25.66,0,0,0,3.14.53C1818.11,444.09,1818.48,444.1,1818.48,444.12Z"/><path class="cls-2" d="M1566.11,363.78c0,.31-16.54.56-36.93.56s-36.94-.25-36.94-.56,16.53-.56,36.94-.56S1566.11,363.47,1566.11,363.78Z"/><polygon class="cls-6" points="1872.47 332.6 1872.47 510.06 1893.95 510.06 1923.51 510.06 2061.31 510.06 2061.31 332.6 1872.47 332.6"/><path class="cls-2" d="M1966.05,352.71A58.27,58.27,0,1,0,2024.32,411,58.26,58.26,0,0,0,1966.05,352.71Zm.88,93.18a35.79,35.79,0,1,1,35.79-35.79A35.8,35.8,0,0,1,1966.93,445.89Z"/><path class="cls-3" d="M1967,352.73c0,6.2,0,14.56,0,21.58A35.8,35.8,0,0,1,2001,421l21.12,5.73A58.24,58.24,0,0,0,1967,352.73Z"/><path class="cls-4" d="M1931.14,410.1a35.79,35.79,0,0,1,21.22-32.69l-9-20.13a58.28,58.28,0,0,0-35.6,53.7c0,.82,0,1.63.06,2.44h23.45C1931.2,412.33,1931.14,411.22,1931.14,410.1Z"/><path class="cls-3" d="M1966.93,445.89a35.61,35.61,0,0,1-7.57-.81c-.9,5.19-2.6,15.25-3.94,23.18a59.11,59.11,0,0,0,10.63,1,58.28,58.28,0,0,0,56.11-42.56L2001,421A35.79,35.79,0,0,1,1966.93,445.89Z"/><path d="M1966.93,445.89a35.61,35.61,0,0,1-7.57-.81c-.9,5.19-2.6,15.25-3.94,23.18a59.11,59.11,0,0,0,10.63,1,58.28,58.28,0,0,0,56.11-42.56L2001,421A35.79,35.79,0,0,1,1966.93,445.89Z"/><path class="cls-2" d="M1959.2,413H1957v2.79h-3V413h-7.14v-2.06l6.25-8.4h3.21l-5.79,8h3.56V408H1957v2.48h2.16Z"/><path class="cls-2" d="M1960.11,409.15c0-4.36,2.42-6.84,5.67-6.84s5.67,2.48,5.67,6.84-2.4,6.85-5.67,6.85S1960.11,413.52,1960.11,409.15Zm8.26,0c0-3-1.06-4.25-2.59-4.25s-2.57,1.25-2.57,4.25,1.06,4.26,2.57,4.26S1968.37,412.16,1968.37,409.15Z"/><path class="cls-2" d="M1972.72,406c0-2.23,1.36-3.65,3.29-3.65s3.27,1.4,3.27,3.65-1.34,3.66-3.27,3.66S1972.72,408.27,1972.72,406Zm4.67,0c0-1.42-.55-2.1-1.38-2.1s-1.38.7-1.38,2.1.57,2.1,1.38,2.1S1977.39,407.45,1977.39,406Zm6.51-3.5h2.25l-9,13.25h-2.25Zm-2.18,9.75c0-2.24,1.37-3.65,3.28-3.65s3.29,1.41,3.29,3.65-1.36,3.65-3.29,3.65S1981.72,414.51,1981.72,412.28Zm4.66,0c0-1.4-.55-2.1-1.38-2.1s-1.39.68-1.39,2.1.57,2.1,1.39,2.1S1986.38,413.68,1986.38,412.28Z"/><path class="cls-2" d="M2014.27,483.94c0,.31-21.59.55-48.21.55s-48.22-.24-48.22-.55,21.58-.55,48.22-.55S2014.27,483.64,2014.27,483.94Z"/><path class="cls-2" d="M1992.79,492.79c0,.31-12,.56-26.74.56s-26.74-.25-26.74-.56,12-.55,26.74-.55S1992.79,492.49,1992.79,492.79Z"/><rect class="cls-11" x="1660.49" y="521.87" width="379.01" height="124.52"/><path class="cls-10" d="M2007.53,551.32c0,.22-64.41.4-143.84.4s-143.86-.18-143.86-.4,64.4-.4,143.86-.4S2007.53,551.1,2007.53,551.32Z"/><path class="cls-10" d="M2007.53,566.06c0,.22-64.41.4-143.84.4s-143.86-.18-143.86-.4,64.4-.41,143.86-.41S2007.53,565.83,2007.53,566.06Z"/><path class="cls-10" d="M2007.53,580.79c0,.22-64.41.4-143.84.4s-143.86-.18-143.86-.4,64.4-.4,143.86-.4S2007.53,580.57,2007.53,580.79Z"/><path class="cls-10" d="M2007.53,595.52c0,.22-64.41.4-143.84.4s-143.86-.18-143.86-.4,64.4-.4,143.86-.4S2007.53,595.3,2007.53,595.52Z"/><path class="cls-10" d="M2007.53,610.26c0,.22-64.41.4-143.84.4s-143.86-.18-143.86-.4,64.4-.41,143.86-.41S2007.53,610,2007.53,610.26Z"/><path class="cls-4" d="M1982.48,593.1s-.2.22-.62.65a8.23,8.23,0,0,1-2.42,1.33,12.87,12.87,0,0,1-10.5-1.68,17.37,17.37,0,0,1-5-5.4,80.79,80.79,0,0,1-3.76-7.51,23.41,23.41,0,0,0-5.63-7.84,12.87,12.87,0,0,0-4.89-2.58,14.74,14.74,0,0,0-6-.29,24.32,24.32,0,0,0-11.48,5.27c-3.43,2.68-6.44,6-10.13,9a24.64,24.64,0,0,1-13.9,5.92,14.21,14.21,0,0,1-8-1.84,17.41,17.41,0,0,1-5.54-5.53c-2.86-4.28-4.31-9.26-8-13.17a13.23,13.23,0,0,0-7-4.18,10.79,10.79,0,0,0-8.18,1.71,16.52,16.52,0,0,0-5.38,6.2,35.81,35.81,0,0,0-2.54,7.76,43.27,43.27,0,0,1-2.52,8.05,19.11,19.11,0,0,1-2.33,3.77,18.49,18.49,0,0,1-3.4,3.13,22.72,22.72,0,0,1-8.77,3.8,23.92,23.92,0,0,1-9.68.12,23.21,23.21,0,0,1-8.55-3.65c-2.53-1.63-4.82-3.44-7.22-5.07a22.66,22.66,0,0,0-7.77-3.67,12.75,12.75,0,0,0-8.32.94,18.69,18.69,0,0,0-6.21,5,46.79,46.79,0,0,0-4.2,6.38,48.79,48.79,0,0,1-4.15,6.32,18.56,18.56,0,0,1-6,4.91,13.63,13.63,0,0,1-7.79,1.58,11.74,11.74,0,0,1-6.77-3.27,16.2,16.2,0,0,1-3.73-5.62,37.66,37.66,0,0,1-1.7-6c-.83-4-1.64-7.8-4-10.86a14.06,14.06,0,0,0-9.25-6,11.86,11.86,0,0,0-5.33.57,14.76,14.76,0,0,0-4.27,2.45c-4.86,4-7.2,8.9-10.8,11.72-3.41,2.93-7.09,4.28-9.65,4.21a9.13,9.13,0,0,1-2.82-.44c-.59-.21-.89-.34-.89-.34a11.61,11.61,0,0,0,3.7.62c2.5,0,6.08-1.35,9.41-4.27,3.51-2.8,5.77-7.66,10.69-11.83a15,15,0,0,1,4.42-2.56,12.56,12.56,0,0,1,5.63-.64,14.69,14.69,0,0,1,9.71,6.17,17.9,17.9,0,0,1,2.69,5.23c.61,1.88,1,3.84,1.46,5.81a36.57,36.57,0,0,0,1.7,5.93,15.52,15.52,0,0,0,3.6,5.39,10.93,10.93,0,0,0,6.3,3,12.77,12.77,0,0,0,7.27-1.51,17.52,17.52,0,0,0,5.7-4.72,47.06,47.06,0,0,0,4.08-6.23,46.9,46.9,0,0,1,4.25-6.49,19.61,19.61,0,0,1,6.49-5.24,13.78,13.78,0,0,1,9-1,23.54,23.54,0,0,1,8.11,3.8c2.44,1.65,4.73,3.45,7.2,5.05a22.51,22.51,0,0,0,8.21,3.52,22.94,22.94,0,0,0,9.26-.13,21.84,21.84,0,0,0,8.4-3.63,18.15,18.15,0,0,0,3.24-3,17.91,17.91,0,0,0,2.22-3.6,42.77,42.77,0,0,0,2.48-7.92,35.61,35.61,0,0,1,2.61-7.91,17.2,17.2,0,0,1,5.66-6.51,11.8,11.8,0,0,1,8.93-1.83,14,14,0,0,1,7.46,4.45c3.85,4.08,5.3,9.13,8.08,13.28a16.7,16.7,0,0,0,5.27,5.31,13.39,13.39,0,0,0,7.44,1.73,23.86,23.86,0,0,0,13.42-5.71c3.64-2.93,6.67-6.23,10.17-8.95a25.11,25.11,0,0,1,11.85-5.37,15.51,15.51,0,0,1,6.31.33,13.58,13.58,0,0,1,5.11,2.74,23.76,23.76,0,0,1,5.7,8c1.28,2.72,2.34,5.29,3.67,7.5a17,17,0,0,0,4.78,5.33,12.63,12.63,0,0,0,10.21,1.77A7.94,7.94,0,0,0,1982.48,593.1Z"/><path class="cls-3" d="M2000.68,589.66s-.33,0-1,.06c-.33,0-.73-.09-1.22-.15a10.24,10.24,0,0,1-1.6-.5c-2.4-.89-5.38-3.06-8.57-6.26-.8-.8-1.62-1.66-2.45-2.59a29.22,29.22,0,0,0-2.66-2.84,15.09,15.09,0,0,0-8.47-3.35,12.68,12.68,0,0,0-9.77,3.26c-2.77,2.37-4.85,5.51-7.57,8.5a21.51,21.51,0,0,1-4.86,4.08,16.26,16.26,0,0,1-6.63,2.15c-4.86.5-9.87-.66-14.6-2.37s-9.34-4.08-14.47-5.6a30.42,30.42,0,0,0-8-1.39,19.54,19.54,0,0,0-8.06,1.53c-5.15,2.13-9.16,6-14,9.2a30.41,30.41,0,0,1-8.1,3.85,34.23,34.23,0,0,1-9.29,1.39,38.31,38.31,0,0,1-18.43-4.42,42.35,42.35,0,0,1-14-12.08c-3.75-4.87-5.81-10.39-8.51-15.44a31.49,31.49,0,0,0-5-7,21.58,21.58,0,0,0-7.29-4.88,14.82,14.82,0,0,0-8.79-.8,15,15,0,0,0-7.3,4.15,20.91,20.91,0,0,0-4.37,6.57,46.94,46.94,0,0,0-2.26,7.27c-.6,2.44-1.14,4.87-1.91,7.23a29.31,29.31,0,0,1-3.13,6.74,32.6,32.6,0,0,1-10.56,10.34,33.83,33.83,0,0,1-13.77,4.83,33.12,33.12,0,0,1-13.63-1.37c-8.34-2.6-14.22-8.22-16.42-14-1.13-2.86-1.71-5.62-2.53-8.08a17.6,17.6,0,0,0-3.27-6.32,12.4,12.4,0,0,0-9.5-4.22,8.18,8.18,0,0,0-3.61,1.13,6.64,6.64,0,0,1,3.59-1.29,12.6,12.6,0,0,1,9.8,4.19,17.91,17.91,0,0,1,3.42,6.4c.85,2.48,1.45,5.23,2.59,8,2.2,5.61,8,11.08,16.16,13.59a32.49,32.49,0,0,0,13.3,1.28,32.86,32.86,0,0,0,13.43-4.76,31.82,31.82,0,0,0,10.29-10.13c2.66-4.1,3.78-8.89,4.92-13.78a47,47,0,0,1,2.27-7.38,21.65,21.65,0,0,1,4.52-6.81,15.34,15.34,0,0,1,17.13-3.57,22.37,22.37,0,0,1,7.61,5.09,31.44,31.44,0,0,1,5.09,7.19c2.75,5.13,4.77,10.57,8.45,15.34a41.32,41.32,0,0,0,13.69,11.83,37.21,37.21,0,0,0,17.94,4.33,33.67,33.67,0,0,0,9-1.35,29.07,29.07,0,0,0,7.87-3.72c4.76-3.11,8.8-7,14.16-9.26a20.58,20.58,0,0,1,8.45-1.58,31.26,31.26,0,0,1,8.23,1.44c5.22,1.56,9.82,4,14.5,5.66s9.56,2.83,14.22,2.37a15.78,15.78,0,0,0,6.34-2,20.73,20.73,0,0,0,4.72-4c2.7-2.92,4.81-6.08,7.68-8.5a13.94,13.94,0,0,1,4.82-2.78,14.17,14.17,0,0,1,5.41-.56,15.57,15.57,0,0,1,8.73,3.51,33.2,33.2,0,0,1,2.67,2.91c.82.93,1.62,1.8,2.4,2.6,3.14,3.21,6,5.39,8.37,6.31A8.43,8.43,0,0,0,2000.68,589.66Z"/><path class="cls-7" d="M1700.08,552.05c0,.23-1.71.41-3.81.41s-3.8-.18-3.8-.41,1.7-.4,3.8-.4S1700.08,551.83,1700.08,552.05Z"/><path class="cls-7" d="M1700.08,566.06c0,.22-1.71.4-3.81.4s-3.8-.18-3.8-.4,1.7-.41,3.8-.41S1700.08,565.83,1700.08,566.06Z"/><path class="cls-7" d="M1700.08,580.06c0,.22-1.71.4-3.81.4s-3.8-.18-3.8-.4,1.7-.4,3.8-.4S1700.08,579.84,1700.08,580.06Z"/><path class="cls-7" d="M1700.08,594.06c0,.22-1.71.4-3.81.4s-3.8-.18-3.8-.4,1.7-.4,3.8-.4S1700.08,593.84,1700.08,594.06Z"/><path class="cls-7" d="M1700.08,608.06c0,.22-1.71.4-3.81.4s-3.8-.18-3.8-.4,1.7-.4,3.8-.4S1700.08,607.84,1700.08,608.06Z"/><path class="cls-7" d="M1735.05,626.06c0,.22-3.41.4-7.61.4s-7.61-.18-7.61-.4,3.41-.4,7.61-.4S1735.05,625.83,1735.05,626.06Z"/><path class="cls-7" d="M1802.13,626.06c0,.22-3.41.4-7.61.4s-7.61-.18-7.61-.4,3.41-.4,7.61-.4S1802.13,625.83,1802.13,626.06Z"/><path class="cls-7" d="M1869.21,626.06c0,.22-3.4.4-7.61.4s-7.6-.18-7.6-.4,3.4-.4,7.6-.4S1869.21,625.83,1869.21,626.06Z"/><path class="cls-7" d="M1936.3,626.06c0,.22-3.41.4-7.61.4s-7.61-.18-7.61-.4,3.4-.4,7.61-.4S1936.3,625.83,1936.3,626.06Z"/><path class="cls-7" d="M2003.38,626.06c0,.22-3.41.4-7.61.4s-7.61-.18-7.61-.4,3.41-.4,7.61-.4S2003.38,625.83,2003.38,626.06Z"/><text class="cls-12" transform="translate(23.06 73.31)">CENTRALISATION DU REPORTING POUR ANALYSE</text></g></g></svg>